<?xml version="1.0" encoding="UTF-8" standalone="no"?>
<!-- Created with Inkscape (http://www.inkscape.org/) -->

<svg
   version="1.1"
   id="svg1"
   width="5333.3335"
   height="5333.3335"
   viewBox="0 0 5333.3335 5333.3335"
   sodipodi:docname="85ffc113-d9f8-4100-87cb-969bd59ae728.eps"
   xmlns:inkscape="http://www.inkscape.org/namespaces/inkscape"
   xmlns:sodipodi="http://sodipodi.sourceforge.net/DTD/sodipodi-0.dtd"
   xmlns="http://www.w3.org/2000/svg"
   xmlns:svg="http://www.w3.org/2000/svg">
  <defs
     id="defs1" />
  <sodipodi:namedview
     id="namedview1"
     pagecolor="#ffffff"
     bordercolor="#000000"
     borderopacity="0.25"
     inkscape:showpageshadow="2"
     inkscape:pageopacity="0.0"
     inkscape:pagecheckerboard="0"
     inkscape:deskcolor="#d1d1d1">
    <inkscape:page
       x="0"
       y="0"
       inkscape:label="1"
       id="page1"
       width="5333.3335"
       height="5333.3335"
       margin="0"
       bleed="0" />
  </sodipodi:namedview>
  <g
     id="g1"
     inkscape:groupmode="layer"
     inkscape:label="1">
    <g
       id="group-R5">
      <path
         id="path2"
         d="M 0,0 H 40000 V 40000 H 0 V 0"
         style="fill:transparent;fill-opacity:1;fill-rule:nonzero;stroke:none"
         transform="matrix(0.13333333,0,0,-0.13333333,0,5333.3333)" />
      <path
         id="path3"
         d="m 4285.25,18650.5 c 3726.22,-126.9 7392.15,278.4 11060.95,632.5 h -1701.4 c 10.1,26.5 19.7,53.4 29.7,79.9 -61.6,43.8 -118.2,111.8 -186.2,126 -147.4,30.5 -302.1,51.5 -452.3,44.7 -1016.7,-47.9 -2033.5,-96.8 -3049.84,-159.7 -803.66,-49.3 -1606.86,-110.9 -2408.7,-182.6 -1011.76,-91.3 -2021.7,-198.1 -3031.17,-298.4 0,5 -3.2,16.8 0.45,19.1 l -261.49,-261.5"
         style="fill:#F9CE5C;fill-opacity:1;fill-rule:nonzero;stroke:none"
         transform="matrix(0.13333333,0,0,-0.13333333,0,5333.3333)" />
      <path
         id="path4"
         d="m 33564.8,16898.7 c 56.1,-194.3 56.1,-194.3 427.3,-76.5 -136.7,24.5 -288.5,51.6 -427.3,76.5 z m -23509.8,18.6 c 0.2,-6.2 0.3,-12.3 0.5,-18.5 330.3,0 660.5,0 990.8,0 -2.6,6.2 -5.2,12.3 -7.8,18.5 -327.9,0 -655.7,0 -983.5,0 z m 23227.5,-1678.7 c 265.3,-154.1 570.1,-184.7 841.3,-47.7 -264.5,15 -569.9,32.3 -841.3,47.7 z m -19690.1,767.2 c 0.2,5.2 0.3,10.4 0.3,15.6 -432.6,0 -865.2,0 -1297.9,0 2.6,-5.2 5.2,-10.4 7.8,-15.6 430,0 859.9,0 1289.8,0 z m 20629.8,3098.9 c -340.9,142.8 -639.1,105.9 -915.5,-114.6 74.3,28.7 148.5,57.4 241.3,93.3 24.4,-416.9 47.8,-815 73.5,-1253.5 0,449.7 0,859.3 0,1306.3 194,-10.1 385.4,-20.2 600.7,-31.5 z m -722.3,-2078.9 c 3.2,19.3 6.3,38.7 9.5,58 -353.6,115.1 -778.5,-6.5 -1087.6,227.3 -31.8,-385.4 0.3,-834.1 200,-1290.4 -70.4,388.1 -135.4,746.4 -206,1135.5 406,-48.9 745.1,-89.6 1084.1,-130.4 z m -21338.8,-25.6 c -5.1,-25.1 -10.3,-50.1 -15.4,-75.1 63.2,-14.4 127.2,-44.3 189.3,-40.6 528.7,31.6 1057,69.3 1585.4,105.2 -0.3,3.5 -0.7,7 -1,10.5 -586.1,0 -1172.2,0 -1758.3,0 z M 25435,22122.3 c -163.8,110.3 -286,250.6 -429,276.5 -279.7,50.7 -574.2,67.7 -855.8,37 -124.6,-13.6 -232.8,-177.4 -348.4,-273 16.2,-13.5 32.5,-27 48.7,-40.5 506.9,0 1013.7,0 1584.5,0 z m 8710.3,-1611.4 c -565.2,112.2 -1072,-62.7 -1510,-413.8 -419.2,-336.1 -651,-806.2 -818.9,-1310.5 78.7,138.6 155.5,278.4 236.5,415.7 277.8,470.3 642,847.7 1161.7,1048.2 756.6,291.8 1527.2,49.4 2038.8,-627.6 302.9,-400.8 476.2,-857.8 606.9,-1336.7 22.5,1006.3 -770.9,2037.3 -1715,2224.7 z M 6668.58,19960.2 c 1571.27,621.4 3174.35,1125.9 4860.22,1326.6 -1761.17,75.8 -3360.23,-443.5 -4860.22,-1326.6 z m 4665.72,-3157.3 c -318.1,-545.7 -711.5,-994.9 -1395.37,-1044.9 -333.22,-24.4 -668.63,-33.6 -1002.73,-28.4 -1170.61,18 -2341.14,43.1 -3511.56,71.4 -181.22,4.4 -365.48,22.8 -541.72,63.4 -374.35,86.3 -518.7,275.2 -534.99,659.1 -13.54,319 -26.84,638 -41.21,957 -0.62,13.7 -10.93,27 -57.59,39 19.74,-435.3 29.21,-871.4 63.83,-1305.5 15.84,-198.7 155.76,-338.2 350.08,-375.6 304.05,-58.4 612.54,-121.4 920.32,-128 1269.23,-27.4 2538.88,-36.7 3808.42,-46.4 242.68,-1.8 486.23,17.5 728.22,39.6 375.1,34.4 697.6,195.1 905.2,507.6 338.7,509.4 648,1038.4 969.6,1559.2 -20.6,16.3 -41.2,32.6 -61.9,48.9 -199.6,-338.7 -400.7,-676.7 -598.6,-1016.4 z m 19496.2,-225.1 c -469.5,155.9 -8353.6,163.2 -8859.9,0 2972.7,0 5913,0 8859.9,0 z m -7486.6,-1792.3 c -307.2,191.2 -484.7,561.4 -954.2,513.9 -648.1,-65.5 -1305.6,-36.4 -1958.8,-58.3 -74.8,-2.5 -165.7,-55.2 -217.3,-113 -108.6,-121.5 -196,-261.9 -311.2,-420.9 1170.1,26.6 2305.8,52.5 3441.5,78.3 z m -9325.1,6388.2 c -1277.8,-259.3 -2506.7,-668.9 -3681.4,-1235.4 -173.2,-83.5 -327.6,-206 -490.68,-310.4 14,-34.5 28.01,-68.9 42.02,-103.4 820.16,51.1 1640.26,102.2 2510.66,156.4 -67.3,24.7 -89.3,32.7 -111.3,40.8 244.8,223.6 2276.1,983.1 3235.8,1257 -342.6,-27.8 -689,-32.5 -1027.1,-87.5 -1171.8,-190.5 -2316.4,-488.5 -3414.8,-944.3 -161.5,-67 -286.5,-224.6 -448.8,-286.1 -163.9,-62.1 -353.2,-57.7 -531.6,-80.4 -37.3,-4.7 -75.7,-0.7 -144.4,49.2 112,73.2 215.5,167.8 337.4,216 641.1,253.5 1274.9,535.5 1933.9,731.8 1045.1,311.4 2108.2,562.9 3216.7,853.6 -504.7,-90.4 -967.5,-164.2 -1426.4,-257.3 z m 1229.7,-6096.4 c -57.7,54.8 -159.1,89.3 -240.7,89.4 -1321.6,2.1 -2643.3,-2.1 -3964.9,-8.3 -63.7,-0.2 -139.5,-14.7 -188.8,-50.9 -295.2,-216.5 -584.4,-441.3 -883.9,-669.7 1905.3,51.9 3819,104 5720.7,155.9 -154.9,172.2 -289.2,337.9 -442.4,483.6 z m 16208.1,-266.9 c -171,189.6 -339.8,386.4 -521.2,570.8 -39.2,39.8 -124,49.8 -187.3,48.7 -1596.4,-28.2 -3192.8,-57.7 -4789.1,-95.6 -92.6,-2.2 -194.3,-62 -272.9,-120.4 -161.9,-120.3 -311,-257.8 -483.3,-403.5 2113.5,0 4195.4,0 6253.8,0 z m -1711.2,7621.4 c -1603.1,839 -3308.9,1247.5 -5122,1105.7 -347.5,-27.1 -704.8,-140.3 -1023.1,-288.1 -907.1,-421.1 -1595.7,-1119.1 -2290.6,-1906.3 273.6,-12.5 504,-63.5 713.1,-17.6 129.8,28.5 231.2,200.4 338.5,314.3 244.6,259.7 474.9,533.7 729.3,783.3 651.2,639 1430.1,954.3 2351.5,904.4 907.7,-49.2 1796.2,-194.6 2653.5,-502.7 576.8,-207.2 575.2,-211.8 425.5,-802.9 -113.1,-447.2 -70,-493.1 384.5,-418.2 470.3,77.5 941,152.7 1411.6,229 14.9,27.5 29.8,55.1 44.7,82.6 -204.2,174.7 -384.5,395.1 -616.5,516.5 z m -7572.1,-2392.2 c 27.9,-168.4 95.9,-202.6 252.6,-199.2 1214.7,26.2 2429.5,45.6 3644.3,63.9 1108.5,16.7 2217.1,29.1 3325.6,44.1 59.5,0.8 119,8.4 252.7,18.3 -108.3,261 -192.2,498.7 -304.5,722.3 -87.1,173.7 -209.6,329.7 -316.4,493.6 542.7,-532.1 797.1,-1165.1 571.1,-1911.2 -145.8,-481.5 -369.6,-939.3 -544.9,-1374.3 261.4,304.8 515.8,672.6 658.3,1096.9 97.6,290.9 140.1,603.6 176.9,910.1 15.8,132.7 48.7,191.6 173.4,245.1 681.7,292.8 1386.2,230 2087.8,135.4 315.7,-42.5 595.4,-50.1 887.2,122.9 371.9,220.2 792.7,247.9 1214.1,147.8 121.4,-28.9 198.8,-13 257.7,105.5 97.6,196.5 206.9,387.3 326.6,608.7 -435.6,83.5 -849.4,172.7 -1266.7,240.3 -584.4,94.6 -1173.3,162.3 -1757,260.9 -768.2,129.8 -1511.9,-30.5 -2260.2,-157 -238.5,-40.3 -478.3,-73.7 -721.4,-110.9 73.8,-118 139.4,-222.9 205,-327.9 -240.5,365.2 -587,281 -938.8,241.1 -1606,-182.5 -3215.7,-314.9 -4834.6,-285.8 -13.5,0.2 -27.1,-7.7 -70.6,-20.9 190.4,-203.1 371.9,-396.7 553.4,-590.3 -471.9,90.5 -933,191.5 -1296,513.8 -217.8,193.3 -479.9,154.5 -731.2,179.6 -17.2,1.8 -41.6,-67.9 -62.7,-104.3 -136.1,188.4 -348.4,155.5 -537.8,179.7 -805.7,103.3 -1610.6,216.9 -2418.7,297.2 -968.5,96.1 -1930.9,-12.7 -2876.4,-211.7 -1045.2,-220.1 -2079.1,-493.6 -3117.6,-745.2 -58.1,-14.1 -113.4,-39.9 -164.6,-82 464.7,111.1 925,248 1395,326.1 514.5,85.5 1037.6,122.1 1558.1,166.7 95.8,8.2 197.1,-46.8 295.8,-72.6 -37.5,-92.4 -75.1,-184.9 -123.7,-304.4 283,-216.5 592.4,-453.2 888.5,-679.7 -158.3,-200.9 -347.9,-441.3 -537.4,-681.8 13.2,-12.8 26.3,-25.7 39.5,-38.5 533.4,657.2 1158.9,1177.9 2019.5,1317.4 880.9,142.8 1624.8,-150.6 2255.1,-768.2 -527.2,850.7 -1559.5,1129.3 -2878.7,787.3 505.1,359.9 1551.8,312.7 2278.1,-115.2 737.3,-434.4 1103.9,-1143.5 1384.1,-1961.6 16.6,510.4 -256.8,1078.8 -846.3,1794.3 632.8,-172.6 1237.9,-337.6 1902.5,-518.9 -69.6,292.5 -121.2,509.4 -172.8,726.3 61.1,-160.8 148.5,-317.3 176.1,-483.7 z m -1850.6,-2837.9 c 5.6,399.5 -79.2,776.9 -277.2,1126.3 -90,135.4 -180.1,270.8 -270.1,406.2 -122.4,295.6 -359.5,462.5 -645.1,574.8 l 8.5,-6.1 c -292.7,266.4 -1067.9,252.5 -1399.7,-43.9 -478.6,-334.6 -793.9,-793 -1001.3,-1330.7 -34.7,-90 -45.3,-189.3 -67,-284.3 -181.9,-737.8 -100,-1441.1 274.5,-2106.4 166.2,-195.6 332.5,-391.2 498.8,-586.8 174.6,-312.2 492,-388.4 798.1,-426.6 646.7,-80.6 1136.7,222.6 1527.8,713.2 11.3,14.1 4.3,42.7 5.7,64.6 127.6,269 255.2,538 382.7,807.1 43.6,113.3 112.9,223.9 125.6,340.7 27.7,252.5 26.4,508.1 36.9,762.5 z M 3524.98,14130.8 c 1558.28,173.6 3125.19,225.1 4697.79,282.8 -506.11,164.8 -928.8,447.3 -1296.27,819.2 -33.01,33.4 -91.91,57.1 -139.26,57.9 -371.56,6.4 -746.02,36.1 -1114.33,1.9 -978.87,-90.8 -1459.43,330 -1462.86,1320.6 -1.6,463.9 0.9,927.8 1.38,1391.7 0.22,210.3 0.04,420.5 0.04,648.1 3751.73,-134.7 7441.73,273.5 11134.63,630 -567.1,0 -1134.3,0 -1701.4,0 10,26.6 20,53.3 30,79.9 -61.8,43.7 -118.4,112 -186.2,126 -147.8,30.5 -302.1,51.6 -452.3,44.6 -1016.8,-47.7 -2033.8,-96.6 -3049.82,-159.4 -803.76,-49.7 -1607.05,-110.9 -2409.1,-183 -1011.4,-90.9 -2021.34,-198 -3030.98,-298.1 0,4.7 -3.06,16.6 0.43,19 363.27,248.6 731.38,490.3 1090.02,745.3 1824.62,1297.5 3858.72,1830 6084.85,1706.7 512,-28.4 1029.7,13.2 1542.5,51.7 142.4,10.7 326,90.8 405.2,200.7 189.1,262.3 441.4,404.2 731.5,530 42.7,-81.9 79.6,-152.6 120.7,-231.3 40.6,18.6 74.4,32.9 107.1,49.2 999.7,500.6 2029.9,924.2 3108.8,1222 1307.7,361.1 2641.6,559.6 3994.5,652 1706.6,116.7 3401.5,59.8 5083.4,-272.1 1416,-279.5 2756.6,-783.9 4067.7,-1370.4 388.2,-173.6 774.2,-275 1201.9,-290.7 1254.7,-46.1 2463.6,-327.7 3635.3,-775.8 217.4,-83.1 302,-266.7 375.5,-458.4 12,-31.6 -46.1,-90 -79.4,-149.6 74.3,-73.5 168.7,-151.9 243,-246.1 47.2,-60 92,-143.7 91.4,-216.5 -9.4,-1209.2 -62.4,-2413.9 -327.1,-3601.4 -81.9,-367.6 -281.3,-572.2 -641.5,-643.1 -62.3,-12.3 -138.9,-38.7 -174.6,-85.1 -237.2,-308.1 -465.1,-623.4 -687.4,-924.8 762.5,-60.7 1571.2,-125.2 2379.8,-189.6 -815.1,-86.2 -1627,-126.3 -2439.1,-161.6 -1974.8,-86 -3949.6,-173.1 -5924.6,-253.5 -1739.6,-70.8 -3479.6,-130.6 -5219.3,-199.8 -2035.8,-81 -4070.8,-200.9 -6107.5,-243.4 -3960.9,-82.6 -7922.85,-113.3 -11880.9,122.6 -602.52,36 -1202.4,116.3 -1803.5,176 -0.01,25.3 -0.02,50.6 -0.02,75.8"
         style="fill:#000000;fill-opacity:1;fill-rule:nonzero;stroke:none"
         transform="matrix(0.13333333,0,0,-0.13333333,0,5333.3333)" />
      <path
         id="path5"
         d="m 18244.2,16259.3 c 11.8,84.8 -35.5,177.8 -107.4,271 -43.1,-104 -86.2,-207.9 -129.3,-311.9 12.8,-16 25.6,-31.9 38.4,-47.9 69.7,29.1 193.1,50.8 198.3,88.8 z m 1836.1,1843.5 c -284.1,-132.8 -568.9,-266 -853.8,-399.1 7.3,-17 14.6,-34 21.9,-50.9 287.3,127.5 574.6,255.1 895.5,397.5 62.5,-296.5 120.6,-572.5 178.8,-848.6 l -1.8,10.6 c -28.4,-58.4 -56.8,-116.9 -70.4,-145 98.2,-35.7 94.3,-226.1 -92.1,-958.2 -127.5,-269.1 -255.1,-538.1 -382.7,-807.1 -200.1,-171.4 -384.3,-367.5 -603.9,-508.6 -368.4,-236.9 -780.9,-293.5 -1196.8,-136.3 -187.2,70.8 -354.5,194.2 -530.9,293.7 -166.3,195.6 -332.6,391.2 -498.8,586.8 -82.6,279.2 -181.2,555 -242.7,838.8 -53.5,247.3 -65.1,503.6 -100.3,798.1 315,-63.9 583.4,-119.5 852.4,-172.2 133.1,-26.1 266.6,-58.6 401.1,-66.4 143.8,-8.2 253.6,-53.1 320,-184.8 41.9,-76.9 70.7,-166.3 128.8,-228.1 101.3,-107.7 220.5,-198.4 307.1,-274.2 -14.5,41.4 -45.5,129.6 -75.9,216.2 285.9,182.1 381.4,151.3 803.1,-253.5 -90,294.1 -461.1,496.2 -747,393.3 -187,-67.3 -293.4,58.3 -421.4,141.7 -4.4,96.2 -8.8,192.5 -11.4,250.8 -524.8,-35.3 -999.7,163.3 -1488.3,248.9 0,145.4 0,271.6 0,397.8 21.7,95 32.3,194.3 67,284.3 207.4,537.7 522.7,996.1 1001.3,1330.7 112.3,31.2 224.6,62.5 356.1,99.1 50.4,-586.8 99.8,-1161.9 149.3,-1737 13.5,1.3 27,2.6 40.5,3.9 -43.9,578.2 -87.8,1156.3 -131.5,1732.6 356.4,169.6 667.7,4.9 985.3,-54.7 l -8.5,6.1 c 215,-191.6 430,-383.2 645.1,-574.8 90,-135.4 180.1,-270.8 270.1,-406.2 11.2,-72.4 22.4,-144.8 34.8,-225.2"
         style="fill:#000000;fill-opacity:1;fill-rule:nonzero;stroke:none"
         transform="matrix(0.13333333,0,0,-0.13333333,0,5333.3333)" />
      <path
         id="path6"
         d="m 29035.3,21175 c -240.3,365.1 -586.8,280.9 -938.6,241 -1606,-182.5 -3215.7,-314.9 -4834.6,-285.8 -13.5,0.2 -27.1,-7.7 -70.6,-20.9 190.4,-203.1 371.9,-396.7 553.4,-590.3 -471.9,90.5 -933,191.5 -1296,513.8 -217.8,193.3 -479.9,154.5 -731.2,179.6 -17.2,1.8 -41.6,-67.9 -62.7,-104.3 114.1,-194.9 228.1,-389.9 342.2,-584.8 61.1,-160.8 148.5,-317.3 176.1,-483.7 27.9,-168.4 95.9,-202.6 252.6,-199.2 1214.7,26.2 2429.5,45.6 3644.3,63.9 1108.5,16.7 2217.1,29.1 3325.6,44.1 59.5,0.8 119,8.4 252.7,18.3 -108.3,261 -192.2,498.7 -304.5,722.3 -87.1,173.7 -209.6,329.7 -316.4,493.6 l 7.7,-7.6"
         style="fill:#F9CE5C;fill-opacity:1;fill-rule:nonzero;stroke:none"
         transform="matrix(0.13333333,0,0,-0.13333333,0,5333.3333)" />
      <path
         id="path7"
         d="m 21997.2,20523.3 c -114.1,194.9 -228.1,389.9 -342.2,584.8 -136.1,188.4 -348.4,155.5 -537.8,179.7 -805.7,103.3 -1610.6,216.9 -2418.7,297.2 -968.5,96.1 -1930.9,-12.7 -2876.4,-211.7 -1045.2,-220.1 -2079.1,-493.6 -3117.6,-745.2 -58.1,-14.1 -113.4,-39.9 -164.6,-82 464.7,111.1 925,248 1395,326.1 514.5,85.5 1037.6,122.1 1558.1,166.7 95.8,8.2 197.1,-46.8 295.8,-72.6 -37.5,-92.4 -75.1,-184.9 -123.7,-304.4 283,-216.5 592.4,-453.2 888.5,-679.7 -158.3,-200.9 -347.9,-441.3 -537.4,-681.8 13.2,-12.8 26.3,-25.7 39.5,-38.5 533.4,657.2 1158.9,1177.9 2019.5,1317.4 880.9,142.8 1624.8,-150.6 2255.1,-768.2 -527.2,850.7 -1559.5,1129.3 -2878.7,787.3 505.1,359.9 1551.8,312.7 2278.1,-115.2 737.3,-434.4 1103.9,-1143.5 1384.1,-1961.6 16.6,510.4 -256.8,1078.8 -846.3,1794.3 632.8,-172.6 1237.9,-337.6 1902.5,-518.9 -69.6,292.5 -121.2,509.4 -172.8,726.3"
         style="fill:#F9CE5C;fill-opacity:1;fill-rule:nonzero;stroke:none"
         transform="matrix(0.13333333,0,0,-0.13333333,0,5333.3333)" />
      <path
         id="path8"
         d="m 29871.3,20355.7 c 51,10.5 104.9,13.8 152.5,32.8 526.5,210.8 1055.3,416.5 1575,643.1 103.6,45.2 171.2,173 255.5,262.8 -108.1,57 -210.6,145.1 -325.2,165.6 -489.8,87.7 -971.9,31.5 -1463.4,-110.2 410.6,-313.5 647.2,-535.4 -194.4,-994.1 z m -835.9,819.3 c -65.5,104.9 -131.1,209.8 -204.9,327.8 243.1,37.2 482.9,70.6 721.4,110.9 748.3,126.5 1492,286.8 2260.2,157 583.7,-98.6 1172.6,-166.3 1757,-260.9 417.3,-67.6 831.1,-156.8 1266.7,-240.3 -119.7,-221.4 -229,-412.2 -326.6,-608.7 -58.9,-118.5 -136.3,-134.4 -257.7,-105.5 -421.4,100.1 -842.2,72.4 -1214.1,-147.8 -291.8,-173 -571.5,-165.4 -887.2,-122.9 -701.6,94.6 -1406.1,157.4 -2087.8,-135.4 -124.7,-53.5 -157.6,-112.4 -173.4,-245.1 -36.8,-306.5 -79.3,-619.2 -176.9,-910.1 -142.5,-424.3 -396.9,-792.1 -658.3,-1096.9 175.3,435 399.1,892.8 544.9,1374.3 226,746.1 -28.4,1379.1 -571.1,1911.2 0,0 7.7,-7.6 7.8,-7.6"
         style="fill:#F9CE5C;fill-opacity:1;fill-rule:nonzero;stroke:none"
         transform="matrix(0.13333333,0,0,-0.13333333,0,5333.3333)" />
      <path
         id="path9"
         d="m 30361.9,21915.3 c -204.2,174.7 -384.5,395.1 -616.5,516.5 -1603.1,839 -3308.9,1247.5 -5122,1105.7 -347.5,-27.1 -704.8,-140.3 -1023.1,-288.1 -907.1,-421.1 -1595.7,-1119.1 -2290.6,-1906.3 273.6,-12.5 504,-63.5 713.1,-17.6 129.8,28.5 231.2,200.4 338.5,314.3 244.6,259.7 474.9,533.7 729.3,783.3 651.2,639 1430.1,954.3 2351.5,904.4 907.7,-49.2 1796.2,-194.6 2653.5,-502.7 576.8,-207.2 575.2,-211.8 425.5,-802.9 -113.1,-447.2 -70,-493.1 384.5,-418.2 470.3,77.5 941,152.7 1411.6,229 14.9,27.5 29.8,55.1 44.7,82.6"
         style="fill:#F9CE5C;fill-opacity:1;fill-rule:nonzero;stroke:none"
         transform="matrix(0.13333333,0,0,-0.13333333,0,5333.3333)" />
      <path
         id="path10"
         d="m 15445.2,21431 c -504.7,-90.4 -967.5,-164.2 -1426.4,-257.3 -1277.8,-259.3 -2506.7,-668.9 -3681.4,-1235.4 -173.2,-83.5 -327.6,-206 -490.68,-310.4 14,-34.5 28.01,-68.9 42.02,-103.4 820.16,51.1 1640.26,102.2 2510.66,156.4 -67.3,24.7 -89.3,32.7 -111.5,40.9 245,223.5 2276.3,983 3236,1256.9 -342.6,-27.8 -689,-32.5 -1027.1,-87.5 -1171.8,-190.5 -2316.4,-488.5 -3414.8,-944.3 -161.5,-67 -286.5,-224.6 -448.8,-286.1 -163.9,-62.1 -353.2,-57.7 -531.6,-80.4 -37.3,-4.7 -75.7,-0.7 -144.4,49.2 112,73.2 215.5,167.8 337.4,216 641.1,253.5 1274.9,535.5 1933.9,731.8 1045.1,311.4 2108.2,562.9 3216.7,853.6"
         style="fill:#F9CE5C;fill-opacity:1;fill-rule:nonzero;stroke:none"
         transform="matrix(0.13333333,0,0,-0.13333333,0,5333.3333)" />
      <path
         id="path11"
         d="m 21970.6,16577.8 c 2972.7,0 5913,0 8859.9,0 -469.5,155.9 -8353.6,163.2 -8859.9,0"
         style="fill:#F9CE5C;fill-opacity:1;fill-rule:nonzero;stroke:none"
         transform="matrix(0.13333333,0,0,-0.13333333,0,5333.3333)" />
      <path
         id="path12"
         d="m 11932.9,17819.3 c -199.6,-338.7 -400.7,-676.7 -598.6,-1016.4 -318.1,-545.7 -711.5,-994.9 -1395.37,-1044.9 -333.22,-24.4 -668.63,-33.6 -1002.73,-28.4 -1170.61,18 -2341.14,43.1 -3511.56,71.4 -181.22,4.4 -365.48,22.8 -541.72,63.4 -374.35,86.3 -518.7,275.2 -534.99,659.1 -13.54,319 -26.84,638 -41.21,957 -0.62,13.7 -10.93,27 -57.59,39 19.74,-435.3 29.21,-871.4 63.83,-1305.5 15.84,-198.7 155.76,-338.2 350.08,-375.6 304.05,-58.4 612.54,-121.4 920.32,-128 1269.23,-27.4 2538.88,-36.7 3808.42,-46.4 242.68,-1.8 486.23,17.5 728.22,39.6 375.1,34.4 697.6,195.1 905.2,507.6 338.7,509.4 648,1038.4 969.6,1559.2 -20.6,16.3 -41.2,32.6 -61.9,48.9"
         style="fill:#F9CE5C;fill-opacity:1;fill-rule:nonzero;stroke:none"
         transform="matrix(0.13333333,0,0,-0.13333333,0,5333.3333)" />
      <path
         id="path13"
         d="m 11528.8,21286.8 c -1761.17,75.8 -3360.23,-443.5 -4860.22,-1326.6 1571.27,621.4 3174.35,1125.9 4860.22,1326.6"
         style="fill:#F9CE5C;fill-opacity:1;fill-rule:nonzero;stroke:none"
         transform="matrix(0.13333333,0,0,-0.13333333,0,5333.3333)" />
      <path
         id="path14"
         d="m 35860.3,18286.2 c 22.5,1006.3 -770.9,2037.3 -1715,2224.7 -565.2,112.2 -1072,-62.7 -1510,-413.8 -419.2,-336.1 -651,-806.2 -818.9,-1310.5 78.7,138.6 155.5,278.4 236.5,415.7 277.8,470.3 642,847.7 1161.7,1048.2 756.6,291.8 1527.2,49.4 2038.8,-627.6 302.9,-400.8 476.2,-857.8 606.9,-1336.7"
         style="fill:#F9CE5C;fill-opacity:1;fill-rule:nonzero;stroke:none"
         transform="matrix(0.13333333,0,0,-0.13333333,0,5333.3333)" />
      <path
         id="path15"
         d="m 23850.5,22122.3 c 506.9,0 1013.7,0 1584.5,0 -163.8,110.3 -286,250.6 -429,276.5 -279.7,50.7 -574.2,67.7 -855.8,37 -124.6,-13.6 -232.8,-177.4 -348.4,-273 16.2,-13.5 32.5,-27 48.7,-40.5"
         style="fill:#F9CE5C;fill-opacity:1;fill-rule:nonzero;stroke:none"
         transform="matrix(0.13333333,0,0,-0.13333333,0,5333.3333)" />
      <path
         id="path16"
         d="m 18170.5,16746.4 c -4.4,96.3 -8.8,192.6 -11.4,250.9 -524.8,-35.3 -999.7,163.3 -1488.3,248.9 0,145.4 0,271.6 0,397.8 -181.9,-737.8 -100,-1441.1 274.5,-2106.4 -82.6,279.2 -181.2,555 -242.7,838.8 -53.5,247.3 -65.1,503.6 -100.3,798.1 315,-63.9 583.4,-119.5 852.4,-172.2 133.1,-26.1 266.6,-58.6 401.1,-66.4 143.8,-8.2 253.6,-53.1 320,-184.8 l -5.3,-4.7"
         style="fill:#F9CE5C;fill-opacity:1;fill-rule:nonzero;stroke:none"
         transform="matrix(0.13333333,0,0,-0.13333333,0,5333.3333)" />
      <path
         id="path17"
         d="m 17739.1,19259 c 112.3,31.2 224.6,62.5 356.1,99.1 50.4,-586.8 99.8,-1161.9 149.3,-1737 13.5,1.3 27,2.6 40.5,3.9 -43.9,578.2 -87.8,1156.3 -131.5,1732.6 356.4,169.6 667.7,4.9 985.3,-54.7 -292.7,266.4 -1067.9,252.5 -1399.7,-43.9"
         style="fill:#F9CE5C;fill-opacity:1;fill-rule:nonzero;stroke:none"
         transform="matrix(0.13333333,0,0,-0.13333333,0,5333.3333)" />
      <path
         id="path18"
         d="m 13919.4,17000.2 c -586.1,0 -1172.2,0 -1758.3,0 -5.1,-25.1 -10.3,-50.1 -15.4,-75.1 63.2,-14.4 127.2,-44.3 189.3,-40.6 528.7,31.6 1057,69.3 1585.4,105.2 -0.3,3.5 -0.7,7 -1,10.5"
         style="fill:#F9CE5C;fill-opacity:1;fill-rule:nonzero;stroke:none"
         transform="matrix(0.13333333,0,0,-0.13333333,0,5333.3333)" />
      <path
         id="path19"
         d="m 19775.7,15302 c -200.1,-171.4 -384.3,-367.5 -603.9,-508.6 -368.4,-236.9 -780.9,-293.5 -1196.8,-136.3 -187.2,70.8 -354.5,194.2 -530.9,293.7 174.6,-312.2 492,-388.4 798.1,-426.6 646.7,-80.6 1136.7,222.6 1527.8,713.2 11.3,14.1 4.3,42.7 5.7,64.6"
         style="fill:#F9CE5C;fill-opacity:1;fill-rule:nonzero;stroke:none"
         transform="matrix(0.13333333,0,0,-0.13333333,0,5333.3333)" />
      <path
         id="path20"
         d="m 32415.8,17156.2 c 406,-48.9 745.1,-89.6 1084.1,-130.4 3.2,19.3 6.3,38.7 9.5,58 -353.6,115.1 -778.5,-6.5 -1087.6,227.3 -31.8,-385.4 0.3,-834.1 200,-1290.4 -70.4,388.1 -135.4,746.4 -206,1135.5"
         style="fill:#F9CE5C;fill-opacity:1;fill-rule:nonzero;stroke:none"
         transform="matrix(0.13333333,0,0,-0.13333333,0,5333.3333)" />
      <path
         id="path21"
         d="m 33621.5,19136.2 c 194,-10.1 385.4,-20.2 600.7,-31.5 -340.9,142.8 -639.1,105.9 -915.5,-114.6 74.3,28.7 148.5,57.4 241.3,93.3 24.4,-416.9 47.8,-815 73.5,-1253.5 0,449.7 0,859.3 0,1306.3"
         style="fill:#F9CE5C;fill-opacity:1;fill-rule:nonzero;stroke:none"
         transform="matrix(0.13333333,0,0,-0.13333333,0,5333.3333)" />
      <path
         id="path22"
         d="m 20045.5,18328 c 11.2,-72.4 22.4,-144.8 34.8,-225.2 -284.1,-132.8 -568.9,-266 -853.8,-399.1 7.3,-17 14.6,-34 21.9,-50.9 287.3,127.5 574.6,255.1 895.5,397.5 62.5,-296.5 120.6,-572.5 178.8,-848.6 5.6,399.5 -79.2,776.9 -277.2,1126.3"
         style="fill:#F9CE5C;fill-opacity:1;fill-rule:nonzero;stroke:none"
         transform="matrix(0.13333333,0,0,-0.13333333,0,5333.3333)" />
      <path
         id="path23"
         d="m 12302.6,16005.8 c 430,0 859.9,0 1289.8,0 0.2,5.2 0.3,10.4 0.3,15.6 -432.6,0 -865.2,0 -1297.9,0 2.6,-5.2 5.2,-10.4 7.8,-15.6"
         style="fill:#F9CE5C;fill-opacity:1;fill-rule:nonzero;stroke:none"
         transform="matrix(0.13333333,0,0,-0.13333333,0,5333.3333)" />
      <path
         id="path24"
         d="m 20320.9,17212.3 c -28.4,-58.4 -56.8,-116.9 -70.4,-145 98.2,-35.7 94.3,-226.1 -92.1,-958.2 43.6,113.3 112.9,223.9 125.6,340.7 27.7,252.5 26.4,508.1 36.9,762.5"
         style="fill:#F9CE5C;fill-opacity:1;fill-rule:nonzero;stroke:none"
         transform="matrix(0.13333333,0,0,-0.13333333,0,5333.3333)" />
      <path
         id="path25"
         d="m 34123.8,15190.9 c -264.5,15 -569.9,32.3 -841.3,47.7 265.3,-154.1 570.1,-184.7 841.3,-47.7"
         style="fill:#F9CE5C;fill-opacity:1;fill-rule:nonzero;stroke:none"
         transform="matrix(0.13333333,0,0,-0.13333333,0,5333.3333)" />
      <path
         id="path26"
         d="m 11038.5,16917.3 c -327.9,0 -655.7,0 -983.5,0 0.2,-6.2 0.3,-12.3 0.5,-18.5 330.3,0 660.5,0 990.8,0 -2.6,6.2 -5.2,12.3 -7.8,18.5"
         style="fill:#F9CE5C;fill-opacity:1;fill-rule:nonzero;stroke:none"
         transform="matrix(0.13333333,0,0,-0.13333333,0,5333.3333)" />
      <path
         id="path27"
         d="m 19130.3,19309 c 215,-191.6 430,-383.2 645.1,-574.8 -122.4,295.6 -359.5,462.5 -645.1,574.8"
         style="fill:#F9CE5C;fill-opacity:1;fill-rule:nonzero;stroke:none"
         transform="matrix(0.13333333,0,0,-0.13333333,0,5333.3333)" />
      <path
         id="path28"
         d="m 33992.1,16822.2 c -136.7,24.5 -288.5,51.6 -427.3,76.5 56.1,-194.3 56.1,-194.3 427.3,-76.5"
         style="fill:#F9CE5C;fill-opacity:1;fill-rule:nonzero;stroke:none"
         transform="matrix(0.13333333,0,0,-0.13333333,0,5333.3333)" />
      <path
         id="path29"
         d="m 18175.8,16751.1 c 41.9,-76.9 70.7,-166.3 128.8,-228.1 101.3,-107.7 220.5,-198.4 307.1,-274.2 -14.5,41.4 -45.5,129.6 -75.9,216.2 285.9,182.1 381.4,151.3 803.1,-253.5 -90,294.1 -461.1,496.2 -747,393.3 -187,-67.3 -293.4,58.3 -421.4,141.7 0,-0.1 5.3,4.6 5.3,4.6"
         style="fill:#F9CE5C;fill-opacity:1;fill-rule:nonzero;stroke:none"
         transform="matrix(0.13333333,0,0,-0.13333333,0,5333.3333)" />
      <path
         id="path30"
         d="m 18045.9,16170.5 c 69.7,29.1 193.1,50.8 198.3,88.8 11.8,84.8 -35.5,177.8 -107.4,271 -43.1,-104 -86.2,-207.9 -129.3,-311.9 12.8,-16 25.6,-31.9 38.4,-47.9"
         style="fill:#F9CE5C;fill-opacity:1;fill-rule:nonzero;stroke:none"
         transform="matrix(0.13333333,0,0,-0.13333333,0,5333.3333)" />
      <path
         id="path31"
         d="m 30065.7,21349.8 c 410.6,-313.5 647.2,-535.4 -194.4,-994.1 51,10.5 104.9,13.8 152.5,32.8 526.5,210.8 1055.3,416.5 1575,643.1 103.6,45.2 171.2,173 255.5,262.8 -108.1,57 -210.6,145.1 -325.2,165.6 -489.8,87.7 -971.9,31.5 -1463.4,-110.2"
         style="fill:#000000;fill-opacity:1;fill-rule:nonzero;stroke:none"
         transform="matrix(0.13333333,0,0,-0.13333333,0,5333.3333)" />
    </g>
  </g>
</svg>
