<?xml version="1.0" encoding="UTF-8" standalone="no"?>
<!-- Created with Inkscape (http://www.inkscape.org/) -->

<svg
   version="1.1"
   id="svg1"
   width="2800"
   height="2800"
   viewBox="0 0 2800 2800"
   sodipodi:docname="vecteezy_super-car-outline-black-and-white-vector-design_13593198.eps"
   xmlns:inkscape="http://www.inkscape.org/namespaces/inkscape"
   xmlns:sodipodi="http://sodipodi.sourceforge.net/DTD/sodipodi-0.dtd"
   xmlns="http://www.w3.org/2000/svg"
   xmlns:svg="http://www.w3.org/2000/svg">
  <defs
     id="defs1" />
  <sodipodi:namedview
     id="namedview1"
     pagecolor="#F9CE5C"
     bordercolor="#000000"
     borderopacity="0.25"
     inkscape:showpageshadow="2"
     inkscape:pageopacity="0.0"
     inkscape:pagecheckerboard="0"
     inkscape:deskcolor="#d1d1d1">
    <inkscape:page
       x="0"
       y="0"
       inkscape:label="1"
       id="page1"
       width="2800"
       height="2800"
       margin="0"
       bleed="0" />
  </sodipodi:namedview>
  <g
     id="g1"
     inkscape:groupmode="layer"
     inkscape:label="1">
    <g
       id="group-R5">
      <path
         id="path2"
         d="m 1505.01,7390.3 c 0,0 -1154.041,-601.8 -80.08,-925.1 1073.96,-323.4 6397.59,-998.9 7529.29,-889.2 1131.68,109.7 2832.18,724.6 2947.58,724.6 0,0 1374.3,-294.5 1977.6,949.8 0,0 1382.9,516.8 2197,788.2 814.2,271.3 2113.3,629.3 2477.1,658.2 363.8,28.9 975.8,23.1 1172.1,554.3 196.3,531.2 254.1,895 213.7,1761.1 -40.5,866.1 5.7,895 -40.5,1137.5 -46.2,242.5 -282.9,398.4 -334.9,398.4 -51.9,0 -508.1,-109.7 -508.1,-109.7 0,0 -1859.2,-2361.6 -2003.5,-2425.1 -144.4,-63.5 -1189.5,-635.2 -1189.5,-635.2 0,0 -1380,583.2 -1391.5,681.4 -11.6,98.1 -635.2,843 -669.8,854.5 -34.7,11.6 -542.8,340.7 -802.6,248.3 -259.8,-92.4 -2557.9,-1940.1 -2760,-2026.7 C 10036.8,9049 6272.2,8177.1 6202.91,8159.8 6133.63,8142.5 2565.3,8061.7 2565.3,8061.7 L 1505.01,7390.3"
         style="fill:#12100e;fill-opacity:1;fill-rule:nonzero;stroke:none"
         transform="matrix(0.13333333,0,0,-0.13333333,0,2800)" />
      <path
         id="path3"
         d="m 13411.7,8208.9 c -54.1,-511.6 -435,-851.3 -575.2,-947.9 -24.4,-16.8 -41.5,-26.2 -48.3,-27.9 -46.2,-11.6 -121.3,63.5 -121.3,63.5 l 182.6,422.7 117.7,1199.8 -28.9,132.8 34.6,352.2 38.9,104.7 c 35,-24.7 67.5,-51 97.7,-78.9 286.9,-265.5 359.7,-677.7 302.2,-1221"
         style="fill:#F9CE5C;fill-opacity:1;fill-rule:nonzero;stroke:none"
         transform="matrix(0.13333333,0,0,-0.13333333,0,2800)" />
      <path
         id="path4"
         d="m 13411.7,8208.9 c -54.1,-511.6 -435,-851.3 -575.2,-947.9 -24.2,17.2 -42.6,35.6 -42.6,35.6 l 182.7,422.7 117.6,1199.8 -28.9,132.8 34.7,352.2 9.5,25.8 c 286.9,-265.5 359.7,-677.7 302.2,-1221"
         style="fill:#F9CE5C;fill-opacity:1;fill-rule:nonzero;stroke:none"
         transform="matrix(0.13333333,0,0,-0.13333333,0,2800)" />
      <path
         id="path5"
         d="m 13008.9,7975.7 -12.4,19.5 c 117.7,74.8 203.9,228.8 225,402.1 22.8,186.6 -30.9,363.6 -140.1,462 l 15.5,17.2 c 114.6,-103.4 171.2,-288.1 147.5,-482 -21.9,-179.9 -112.1,-340.4 -235.5,-418.8"
         style="fill:#151210;fill-opacity:1;fill-rule:nonzero;stroke:none"
         transform="matrix(0.13333333,0,0,-0.13333333,0,2800)" />
      <path
         id="path6"
         d="m 12560.6,10154.7 c -582.5,0 -1102.6,-392.1 -1376.4,-966.6 249.7,434.8 686.8,723.4 1175.5,719.8 743.3,-5.5 1324.4,-685.1 1298,-1518 -26.5,-832.8 -650.6,-1503.4 -1393.9,-1497.9 -634.3,4.7 -1150.3,500.3 -1271.7,1163 88.8,-849.6 685.8,-1496.8 1434.2,-1496.8 834.7,0 1541.4,805.1 1578.5,1798.3 37.1,993.1 -609.5,1798.2 -1444.2,1798.2"
         style="fill:#bfc2c5;fill-opacity:1;fill-rule:nonzero;stroke:none"
         transform="matrix(0.13333333,0,0,-0.13333333,0,2800)" />
      <path
         id="path7"
         d="m 12537,10093.8 c 98.1,2.3 196.7,-7.5 292.9,-30.6 96.3,-22.8 190.2,-57.8 279.4,-103.5 22.1,-11.8 44.6,-22.9 66,-36.3 l 32.5,-19.4 c 5.4,-3.1 10.7,-6.6 15.9,-10.2 l 15.7,-10.6 31.4,-21.3 c 10.3,-7.3 20.3,-15.3 30.4,-22.9 l 30.4,-23 29.2,-24.6 c 77.9,-65.7 149.5,-140.1 213.9,-221.1 64.4,-81 121.5,-168.7 170.9,-261.1 12.9,-22.9 24,-46.7 35.6,-70.3 l 8.6,-17.7 4.3,-8.9 3.9,-9.1 15.8,-36.2 7.8,-18.2 c 2.6,-6 5.2,-12.1 7.5,-18.3 l 13.9,-37.1 c 4.6,-12.4 9.6,-24.6 13.8,-37.2 l 12.4,-37.7 c 65.8,-201.4 98.7,-414.7 99.7,-628.1 0.1,-106.7 -7.7,-213.4 -23.7,-318.8 l -2.8,-19.8 -1.5,-9.9 -1.8,-9.8 -7.4,-39.3 c -2.5,-13.1 -4.7,-26.2 -7.5,-39.2 l -9,-38.9 -9.1,-38.9 -10.6,-38.4 -10.9,-38.4 c -3.9,-12.7 -8.2,-25.2 -12.3,-37.8 -32.8,-100.9 -73.8,-198.7 -122.7,-291.9 -48.9,-93.1 -106.4,-181 -170.8,-262.4 l -24.3,-30.4 c -4,-5.2 -8.2,-10 -12.6,-14.9 l -12.8,-14.5 -25.6,-29.1 c -8.5,-9.8 -17.9,-18.6 -26.8,-27.9 l -27,-27.6 c -9.2,-9.1 -18.8,-17.6 -28.2,-26.4 l -28.2,-26.1 c -9.7,-8.3 -19.6,-16.5 -29.4,-24.7 l -29.4,-24.6 -30.5,-23 c -10.2,-7.5 -20.2,-15.5 -30.6,-22.8 l -31.6,-21.3 -15.8,-10.5 c -5.2,-3.6 -10.5,-7.1 -16,-10.2 l -32.6,-19.4 c -21.5,-13.4 -44.1,-24.5 -66.3,-36.2 l -16.7,-8.7 c -5.6,-3 -11.4,-5.3 -17.1,-8 l -34.2,-15.5 -17.2,-7.8 -17.4,-6.7 -35.1,-13.3 c -5.8,-2.1 -11.6,-4.6 -17.5,-6.4 l -17.9,-5.6 -35.6,-11.1 c -11.7,-4.1 -23.9,-6.6 -35.9,-9.7 l -36.1,-9 c -3,-0.7 -6,-1.6 -9,-2.2 l -9.1,-1.7 -18.3,-3.4 -36.4,-6.8 c -24.4,-3.7 -48.9,-6.3 -73.3,-9.5 -24.6,-2.1 -49.2,-3 -73.7,-4.4 l -73.6,0.4 v 9.8 l 72.8,5.6 72.2,9.8 c 23.8,4.6 47.7,8.7 71.4,13.8 l 35.3,8.9 17.6,4.4 8.9,2.2 c 2.9,0.8 5.8,1.8 8.7,2.7 l 34.7,11 c 11.5,3.8 23.2,6.9 34.5,11.6 l 34,13 17,6.5 c 5.7,2.1 11.2,4.8 16.7,7.2 44.6,19.5 88.6,40.3 131,64.6 21,12.3 42.4,24 62.7,37.9 l 30.7,20 c 5.2,3.2 10.1,6.9 15,10.5 l 14.9,10.9 29.8,21.5 c 9.9,7.3 19.3,15.3 28.9,22.9 l 28.8,23.1 27.7,24.5 27.6,24.6 26.5,26.1 c 8.7,8.7 17.8,17.1 26.3,26.1 l 25.3,27.4 12.6,13.7 c 4.2,4.5 8.6,8.9 12.5,13.8 l 24.2,28.4 12.1,14.2 c 4.1,4.7 8.1,9.5 11.8,14.5 l 22.9,29.7 11.5,14.8 5.7,7.4 5.4,7.7 21.6,30.7 c 14.7,20.2 27.9,41.7 41.4,62.9 13.9,20.9 26.1,43 38.7,64.8 12.9,21.6 24.3,44.2 36.1,66.5 46.6,89.7 85.5,184 116.7,281.1 30.9,97.2 55.2,196.9 71.1,298.4 16,101.4 24.2,204.3 24.8,307.3 l -1.4,77.3 c 0,6.4 -0.4,12.8 -0.8,19.3 l -1.1,19.2 -2.3,38.6 c -3.8,51.3 -8.8,102.6 -16.6,153.4 -15,101.8 -37.8,202.2 -68.5,299.9 l -11.6,36.6 c -4,12.2 -8.7,24 -13,36.1 l -13.1,36 c -2.1,6 -4.5,11.9 -7,17.8 l -7.3,17.7 -14.5,35.4 -3.6,8.9 -4,8.6 -8,17.4 c -10.6,23.1 -20.9,46.4 -32.9,68.8 -45.9,90.6 -99.5,176.9 -160.3,256.9 -60.8,80.2 -128.3,154.5 -202.6,220.6 l -27.9,24.7 -28.9,23.3 c -9.7,7.7 -19.2,15.7 -29.1,23.1 l -30.1,21.7 -14.9,10.9 c -5,3.7 -10,7.3 -15.2,10.6 l -31,20.2 c -20.4,14 -41.9,25.7 -63.2,38.1 -85.6,48.4 -176.4,86.6 -270.4,113.1 -94,26.1 -191,41.8 -288.8,44.8 v 4.4"
         style="fill:#12100e;fill-opacity:1;fill-rule:nonzero;stroke:none"
         transform="matrix(0.13333333,0,0,-0.13333333,0,2800)" />
      <path
         id="path8"
         d="m 11601.6,7045.4 c 0,0 340.7,-265.6 687.1,-213.6 346.4,52 767.9,144.4 1022,525.4 254.1,381.1 427.3,692.9 404.2,1120.2 -23.1,427.3 -177.2,952.9 -432.1,1157.8 -255,204.9 -457.1,395.4 -994.1,349.2 h -52 l 17.4,34.7 c 0,0 669.7,178.9 1212.5,-433.1 542.8,-612 346.4,-1507 346.4,-1507 0,0 -224.6,-808 -606,-1042 -381.3,-234.1 -698.9,-378.4 -1068.4,-297.6 -369.6,80.9 -542.8,254.1 -542.8,254.1 l 5.8,51.9"
         style="fill:#12100e;fill-opacity:1;fill-rule:nonzero;stroke:none"
         transform="matrix(0.13333333,0,0,-0.13333333,0,2800)" />
      <path
         id="path9"
         d="m 13683.1,8145.4 -23.1,-98.2 c 0,0 -375.3,-28.8 -386.8,-28.8 -11.6,0 -533.8,240.8 -533.8,240.8 l 15,93.6 541.9,-5.3 z m -230.9,-583.2 -40.5,-80.8 -375.3,196.3 -75,115.5 -294.5,306 38.8,58.9 457.8,-226.3 z m -369.6,-398.4 -80.8,-52 c 0,0 -236.7,334.9 -242.5,352.3 -5.8,17.3 -57.8,138.5 -75.1,207.8 -17.3,69.3 -92.4,242.5 -92.4,242.5 l 23.1,23.1 c 0,0 300.3,-259.8 340.7,-346.4 40.4,-86.6 127,-427.3 127,-427.3 z m -479.2,-271.4 -63.5,-5.7 c 0,0 -144.4,479.2 -132.8,519.6 11.5,40.4 23.1,80.9 28.8,150.1 5.8,69.3 -5.7,236.8 -5.7,236.8 l 23.1,11.5 c 0,0 167.4,-329.1 167.4,-375.3 0,-46.2 -17.3,-537 -17.3,-537 z m -92.4,2477.1 179,640.9 h 28.9 c 0,0 17.3,-623.6 -11.6,-692.9 -28.8,-69.3 -161.7,-317.6 -207.8,-329.1 0,0 17.3,311.8 11.5,381.1 z m 323.3,-92.4 404.2,519.7 c 0,0 -225.2,-600.5 -265.6,-669.8 -40.4,-69.3 -219.4,-213.7 -294.4,-225.2 0,0 144.3,282.9 155.8,375.3 z m 773.8,52 c 0,0 -410,-490.8 -450.4,-513.9 -40.4,-23.1 -363.8,-138.6 -363.8,-138.6 l -23.1,34.6 c 0,0 283,271.4 323.4,329.2 3.7,5.3 6.8,9.8 9.4,13.5 l -3.6,-2 c 0,0 28.4,38 3.6,2 z m 132.8,-589 v -40.4 c 0,0 -410,-248.3 -456.2,-248.3 -46.2,0 -526.5,6.3 -526.5,6.3 l -3.8,56.1 c 0,0 478.4,180.1 524.5,214.8 z M 12268.5,7365.9 c -34.6,-63.5 -248.3,-473.5 -248.3,-473.5 0,0 34.7,496.6 63.5,560.1 28.9,63.5 150.2,323.4 150.2,323.4 0,0 69.2,-346.5 34.6,-410 z m 1149,1033.5 490.8,248.3 -17.3,167.5 h -531.2 l -11.6,34.6 369.6,450.4 -57.8,144.3 -173.2,-11.5 -329.1,-225.2 173.2,606.3 -98.1,80.8 -155.9,-52 -265.6,-386.8 -5.8,617.8 -138.6,17.3 -184.8,-640.9 h -40.4 l -225.2,502.3 -34.6,-103.9 c 0,0 155.9,-404.2 173.2,-490.8 17.3,-86.6 -75.1,-352.2 -75.1,-352.2 l 28.9,-155.9 -28.9,-5.8 c 0,115.5 -127,427.3 -127,427.3 l -11.5,485 -46.2,-69.3 17.3,-357.9 -40.4,-34.7 -86.6,86.6 -11.6,-109.7 c 52,-75 121.3,-386.8 121.3,-386.8 l 63.5,-104 -52,-69.3 c -23.1,34.7 -242.5,283 -242.5,283 l -5.8,-167.5 46.2,-86.6 132.8,-127 -31.9,-80.5 -222.1,57.4 -17.3,-92.4 230.9,-57.7 v -63.6 l -132.8,-69.2 -150.1,-75.1 -11.6,-127 c 52,0 265.6,92.4 265.6,92.4 -28.8,-104 -294.4,-404.2 -294.4,-404.2 l -17.3,-80.9 h 80.8 v -51.9 l -92.4,-138.6 -34.6,-155.9 225.1,329.1 225.2,213.7 -109.7,-363.8 -340.6,-329.1 5.7,-173.2 340.7,323.3 -80.8,-392.6 40.4,-207.9 173.2,-46.2 248.3,490.8 63.5,-329.1 109.7,-196.3 167.5,23.1 63.5,612 363.7,-444.6 121.3,80.8 -150.1,589 40.4,23.1 461.9,-254.1 86.6,144.4 -334.9,450.4 23.1,40.4 h 502.3 l 46.2,161.6 -490.8,259.9 5.8,28.8"
         style="fill:#F9CE5C;fill-opacity:1;fill-rule:nonzero;stroke:none"
         transform="matrix(0.13333333,0,0,-0.13333333,0,2800)" />
      <path
         id="path10"
         d="m 12667.1,8394 c -7.6,-179.4 -132.7,-324.9 -279.4,-324.9 -146.7,0 -259.4,145.5 -251.9,324.9 7.6,179.4 132.7,324.9 279.4,324.9 146.7,0 259.4,-145.5 251.9,-324.9"
         style="fill:#110f0e;fill-opacity:1;fill-rule:nonzero;stroke:none"
         transform="matrix(0.13333333,0,0,-0.13333333,0,2800)" />
      <path
         id="path11"
         d="m 12121.3,8200.2 -185.7,-68.4 -31.4,-58.3 c 0,0 66.9,28.6 49.6,-0.3 -17.3,-28.9 -248.3,-294.5 -248.3,-294.5 0,0 104,17.4 196.3,86.6 92.4,69.3 219.5,334.9 219.5,334.9"
         style="fill:#12100e;fill-opacity:1;fill-rule:nonzero;stroke:none"
         transform="matrix(0.13333333,0,0,-0.13333333,0,2800)" />
      <path
         id="path12"
         d="m 12086.6,8344.6 -116.4,12 -256,-124.6 14.4,-54.9 c 0,0 334.9,132.8 358,167.5"
         style="fill:#12100e;fill-opacity:1;fill-rule:nonzero;stroke:none"
         transform="matrix(0.13333333,0,0,-0.13333333,0,2800)" />
      <path
         id="path13"
         d="m 12029.2,8629 45.9,33.2 c -17.4,51.9 -205.9,230.8 -205.9,230.8 l -10.7,-66.3 46.2,-86.6 124.5,-111.1"
         style="fill:#12100e;fill-opacity:1;fill-rule:nonzero;stroke:none"
         transform="matrix(0.13333333,0,0,-0.13333333,0,2800)" />
      <path
         id="path14"
         d="m 12040.4,9216.5 c 40.4,-46.2 92.4,-323.4 92.4,-329.2 0,-5.7 86.6,-109.7 86.6,-109.7 0,0 5.8,23.1 5.8,69.3 0,46.2 -57.7,236.8 -80.8,300.3 -23.1,63.5 -161.7,184.7 -168.5,189.5 l -22.1,-45.2 c 0,0 46.2,-28.8 86.6,-75"
         style="fill:#12100e;fill-opacity:1;fill-rule:nonzero;stroke:none"
         transform="matrix(0.13333333,0,0,-0.13333333,0,2800)" />
      <path
         id="path15"
         d="m 12375.3,9326.2 c 5.8,-46.2 -40.4,-334.9 -40.4,-334.9 0,0 52,-144.4 69.3,-104 17.3,40.5 52,288.7 46.2,415.8 -5.8,127 -244.3,606.4 -244.3,606.4 l -27.1,-40.6 173.2,-461.9 c 0,0 17.3,-34.6 23.1,-80.8"
         style="fill:#12100e;fill-opacity:1;fill-rule:nonzero;stroke:none"
         transform="matrix(0.13333333,0,0,-0.13333333,0,2800)" />
      <path
         id="path16"
         d="m 12770.8,9236.7 c 28.9,75 0,762.1 0,762.1 l -51.9,11.6 c 0,0 0,-640.9 -1.7,-682.2 -1.7,-41.2 -177.3,-310.9 -194.6,-322.5 -17.4,-11.5 0,-213.6 0,-213.6 57.7,51.9 219.4,369.5 248.2,444.6"
         style="fill:#12100e;fill-opacity:1;fill-rule:nonzero;stroke:none"
         transform="matrix(0.13333333,0,0,-0.13333333,0,2800)" />
      <path
         id="path17"
         d="m 12606.3,8800.7 -5.8,-115.4 c 0,0 219.4,150.1 282.9,219.4 63.5,69.3 190.6,190.5 219.4,265.6 28.9,75 179,583.1 179,583.1 l -47.9,26.9 c 0,0 -231.3,-586.6 -230.3,-589.7 1.1,-3 -54.5,-105.5 -75.8,-123.5 C 12906.5,9049 12706,8907 12706,8907 l -99.7,-106.3"
         style="fill:#12100e;fill-opacity:1;fill-rule:nonzero;stroke:none"
         transform="matrix(0.13333333,0,0,-0.13333333,0,2800)" />
      <path
         id="path18"
         d="m 12793.9,8676.6 -23.1,34.6 14.5,26 -92.4,-57.7 34.6,-40.4 c 0,0 -57.7,-46.2 -40.4,-52 17.3,-5.8 173.2,34.6 329.1,92.4 155.9,57.7 259.9,115.5 271.4,132.8 11.6,17.3 386.9,490.8 386.9,490.8 l -40.5,46.2 -450.3,-519.7 -389.8,-153"
         style="fill:#12100e;fill-opacity:1;fill-rule:nonzero;stroke:none"
         transform="matrix(0.13333333,0,0,-0.13333333,0,2800)" />
      <path
         id="path19"
         d="m 13865,8771.9 -485,-11.6 c 0,0 -23.1,-17.3 -11.6,-17.3 11.6,0 372.5,-2.9 372.5,-2.9 l -8.7,-37.5 -447.5,-251.2 -526.5,6.3 -3.8,56.1 c 0,0 -44.2,9.8 -44.2,-36.4 0,-46.2 40.4,-52 40.4,-52 0,0 583.2,-28.8 600.5,-23.1 17.3,5.8 496.6,248.3 508.1,271.4 11.6,23.1 5.8,98.2 5.8,98.2"
         style="fill:#12100e;fill-opacity:1;fill-rule:nonzero;stroke:none"
         transform="matrix(0.13333333,0,0,-0.13333333,0,2800)" />
      <path
         id="path20"
         d="m 13666.3,8151.6 -9.2,-89.9 -355.8,-42 -558.8,252.7 33.7,75.8 c 0,0 -83.3,-9.4 -83.3,-26.7 0,-17.3 -33.9,-20.6 46.5,-62.3 80.5,-41.6 548.2,-261 548.2,-261 l 537,-11.6 23.1,103.9 -519.7,254.1 338.3,-193"
         style="fill:#12100e;fill-opacity:1;fill-rule:nonzero;stroke:none"
         transform="matrix(0.13333333,0,0,-0.13333333,0,2800)" />
      <path
         id="path21"
         d="m 12692.9,8211.8 c -5.8,0 -34.7,0 -57.8,-34.7 -23.1,-34.6 31.8,-77.9 31.8,-77.9 l 38.8,58.9 457.8,-226.3 288.7,-369.6 -40.5,-80.8 153.1,-95.3 c 0,0 46.2,46.2 46.2,75.1 0,28.8 -381.1,513.9 -381.1,513.9 0,0 -531.2,236.7 -537,236.7"
         style="fill:#12100e;fill-opacity:1;fill-rule:nonzero;stroke:none"
         transform="matrix(0.13333333,0,0,-0.13333333,0,2800)" />
      <path
         id="path22"
         d="m 12606.3,8079 c -11.6,11.5 -52,17.3 -75.1,0 -23.1,-17.3 -5.8,-52 -5.8,-52 0,0 63.6,-103.9 66.4,-112.6 l 23.1,23.1 c 0,0 303.2,-297.3 327,-319.4 23.7,-22.1 129.1,-443.7 129.1,-443.7 l -69.2,-62.6 c 0,0 83.7,-153 101,-176.1 17.4,-23.1 69.3,63.5 69.3,63.5 0,0 -132.8,589 -144.3,629.4 -11.6,40.4 -410,438.8 -421.5,450.4"
         style="fill:#12100e;fill-opacity:1;fill-rule:nonzero;stroke:none"
         transform="matrix(0.13333333,0,0,-0.13333333,0,2800)" />
      <path
         id="path23"
         d="m 12433.1,8038.6 c -23.1,-5.8 -40.5,-34.7 -40.5,-57.8 0,-23.1 37.6,-187.6 37.6,-187.6 l 31.7,14.4 159.8,-363.6 -18.3,-551.6 -63.5,-5.7 -54.9,176.1 57.8,-329.2 c 0,0 11.5,-11.5 23.1,-11.5 11.5,0 57.7,5.8 69.2,17.3 11.6,11.6 63.6,542.8 69.3,640.9 5.8,98.2 -86.6,363.8 -121.2,427.3 -34.7,63.5 -127,236.7 -150.1,231"
         style="fill:#12100e;fill-opacity:1;fill-rule:nonzero;stroke:none"
         transform="matrix(0.13333333,0,0,-0.13333333,0,2800)" />
      <path
         id="path24"
         d="m 12329.1,7992.4 c -23.1,103.9 -69.3,57.7 -69.3,28.8 0,-28.8 -36.8,-262.7 -36.8,-262.7 0,0 19.5,-8.6 19.6,-22.5 0.1,-13.8 40.3,-315.2 33.7,-359.4 -6.6,-44.2 -258.3,-474.6 -258.3,-474.6 l -35.3,-99.1 5.8,-11.5 c 0,0 46.1,-28.9 75,-11.6 28.9,17.4 300.3,583.2 317.6,664 17.3,80.9 -28.9,444.6 -52,548.6"
         style="fill:#12100e;fill-opacity:1;fill-rule:nonzero;stroke:none"
         transform="matrix(0.13333333,0,0,-0.13333333,0,2800)" />
      <path
         id="path25"
         d="m 12109.7,7640.2 c 80.8,127 92.4,386.8 98.2,398.4 5.7,11.5 -63.5,121.2 -63.5,121.2 0,0 0,-57.7 -34.7,-115.5 -34.6,-57.7 -213.6,-236.7 -265.6,-288.7 -52,-51.9 -115.5,-207.8 -115.5,-207.8 l 106.8,147.2 251.2,245.4 c 0,0 -28.9,-173.2 -52,-265.6 -23,-92.4 -51.9,-109.7 -63.5,-121.2 -11.5,-11.6 -318.2,-303.4 -318.2,-303.4 l -10.9,-112.4 c 0,0 311.8,283 334.9,300.3 23.1,17.3 52,75 132.8,202.1"
         style="fill:#12100e;fill-opacity:1;fill-rule:nonzero;stroke:none"
         transform="matrix(0.13333333,0,0,-0.13333333,0,2800)" />
      <path
         id="path26"
         d="m 12005.8,7426.5 -49.1,-60.6 -76.3,-382.4 25.3,-137.6 36.6,-54.5 86.6,594.7 -23.1,40.4"
         style="fill:#12100e;fill-opacity:1;fill-rule:nonzero;stroke:none"
         transform="matrix(0.13333333,0,0,-0.13333333,0,2800)" />
      <path
         id="path27"
         d="m 12375.3,7270.6 c -28.9,0 -34.6,-40.4 -34.6,-40.4 l 53.6,-336.6 c 0,0 108,-177.3 112.3,-196.6 4.2,-19.3 14,-14 14,-14 0,0 -110.6,529.9 -110.6,541.4 0,11.6 -5.8,46.2 -34.7,46.2"
         style="fill:#12100e;fill-opacity:1;fill-rule:nonzero;stroke:none"
         transform="matrix(0.13333333,0,0,-0.13333333,0,2800)" />
      <path
         id="path28"
         d="m 12785.3,7345.7 c -40.4,0 -43.3,-26 -43.3,-26 l 311.7,-382 c 0,0 -228,408 -268.4,408"
         style="fill:#12100e;fill-opacity:1;fill-rule:nonzero;stroke:none"
         transform="matrix(0.13333333,0,0,-0.13333333,0,2800)" />
      <path
         id="path29"
         d="m 19812.2,10313.5 c -32,-9.2 -136.6,-3.8 -178.6,-1.2 -11,0.7 -17.7,1.2 -17.7,1.2 l -311.8,132.8 1.5,11.5 4.3,34.7 c 5.8,5.8 311.8,40.4 334.9,28.9 23.1,-11.6 196.3,-138.6 196.3,-138.6 0,0 11.5,-57.7 -28.9,-69.3 z m -80.8,-300.2 -63.5,225.2 h 109.7 c -5.8,-69.3 -46.2,-225.2 -46.2,-225.2 z m -5.8,-161.7 c 0,0 -57.7,40.4 -103.9,161.7 -7.9,20.7 -16.3,40.3 -25.3,58.6 -43.3,89.2 -99.2,151.4 -171,189.7 -86.6,46.2 -138.6,63.5 -138.6,63.5 l 5.8,46.2 c 0,0 254.7,-58.8 312.9,-117.7 5,-5.1 8.6,-10.1 10.4,-15.1 23.1,-63.6 115.5,-329.2 144.4,-346.5 z m -86.6,-225.2 c -16.5,-49.6 -28.9,277.2 -28.9,277.2 5.8,-28.9 98.2,-132.8 98.2,-132.8 0,0 -63.5,-127.1 -69.3,-144.4 z m -34.6,-202.1 c 0,0 -98.2,352.2 -104,444.6 -1.2,20.6 -6.3,46.7 -15.1,75.7 -30.7,101.1 -107.5,238.1 -233.2,305.4 0,0 -28.8,11.6 -23,34.7 0,0 282.9,-132.8 317.5,-231 3.7,-10.2 6.7,-21.1 9.4,-32.3 23,-96.8 13.7,-222.3 13.7,-227.5 0,-5.8 40.4,-265.6 63.5,-311.8 z m -138.6,-132.8 40.4,398.4 c 0,0 63.5,-277.1 63.5,-288.7 z m -23.1,23.1 -11.6,-69.3 c 0,0 -31.9,227.5 -40.1,364.5 -2.3,37.7 -2.8,68.5 -0.3,85.9 11.6,80.8 17.3,202.1 0,254.1 -17.3,51.9 -144.3,242.5 -167.4,265.6 0,0 213.6,-161.7 230.9,-283 0.5,-3.3 1,-6.8 1.4,-10.7 14.4,-137.2 -12.9,-607.1 -12.9,-607.1 z m -148.1,-122.4 c -2.3,0.1 -4.3,0.2 -6.1,0.4 h -0.2 c -4.6,0.4 -7.3,0.8 -7.3,0.8 l 0.2,0.8 92.2,397.6 3.3,-34.9 31.3,-328.9 c -38.4,-34.1 -89.3,-36.7 -113.4,-35.8 z m -186.8,128.2 138.6,358 c 0,-11.6 -40.4,-427.3 -40.4,-427.3 0,0 -86.7,17.3 -98.2,69.3 z m 184.8,594.7 c -5.8,92.4 -5.8,138.6 -17.4,184.8 -1.3,5.6 80.9,-179 80.9,-294.5 0,-115.5 -92.4,-554.3 -92.4,-554.3 l 17.3,525.4 -163.2,-382.4 c 27.6,66.3 180,436.9 174.8,521 z M 18975,9747.7 c 1.3,3.4 3.3,7.1 5.9,11.1 4.7,8.6 12,21.6 21.5,37 26,42.1 68.3,101.9 116.9,136.6 80.9,57.8 109.8,127.1 109.8,155.9 0,0 46.1,-167.4 11.5,-271.3 -34.6,-104 -167.4,-398.4 -167.4,-398.4 0,0 109.7,490.7 109.7,502.3 0,11.5 -56.1,-28.1 -56.1,-28.1 l -10.5,-10.1 c 12.3,9.3 20.4,15.1 20.4,15.1 l -92.1,-373.5 -6.1,-24.9 c 0,0 -80.8,202.1 -63.5,248.3 z m 115.5,346.4 c 34.6,92.4 63.5,132.8 75,155.9 1.4,2.7 3.6,0.8 6,-4.7 11.3,-24.2 29.2,-118.6 5.6,-180.1 -24.2,-62.9 -166.1,-203 -211.3,-246.5 0,-0.1 0,-0.1 -0.1,-0.1 -8.2,-7.9 -13.2,-12.6 -13.7,-13.1 1.5,3 104.1,196.9 138.5,288.6 z m -173.2,190.6 196.3,-17.4 v -11.5 l -184.8,-323.4 z m 23.1,525.4 127,-190.6 -5.8,-51.9 -150.1,-109.7 c 0,0 5.8,265.6 28.9,352.2 z m 34.6,121.2 c 0,0 161.7,-57.7 184.8,-80.8 23.1,-23.1 86.6,-132.8 92.3,-167.4 5.1,-30.1 27.5,-134.2 14.4,-214 -1.9,-12.1 -4.8,-23.7 -8.6,-34.3 -28.8,-80.9 -46.2,-121.3 -46.2,-121.3 l -32.5,2 -256.2,15.3 -5.7,69.3 254,173.3 c 0,0 -34.6,92.3 -46.2,103.9 -11.5,11.5 -155.9,184.8 -155.9,184.8 z m 34.6,283 52,-265.6 -92.4,46.2 c 0,0 23.1,173.2 40.4,219.4 z m 69.3,173.2 144.4,-277.2 c 0,0 46.2,-115.4 40.4,-184.7 l 17.3,-28.9 c 0,0 75.1,69.3 92.4,173.2 17.3,104 69.3,640.9 69.3,640.9 0,0 11.5,-594.7 -5.8,-646.7 -17.3,-51.9 -121.2,-213.6 -155.9,-230.9 -4.9,-2.5 -8.7,-4.3 -11.5,-5.8 h -34.7 c 0,0 -46.2,86.6 -46.2,92.4 0,5.8 -121.2,421.5 -121.2,421.5 z m 75.1,179 c 9.2,14.7 5.8,-248.3 5.8,-248.3 l -52,127 c 0,0 17.3,75.1 46.2,121.3 z m 179,-311.8 c 5.8,-17.3 5.8,-98.2 5.8,-155.9 0,-57.7 -46.2,-109.7 -46.2,-109.7 l -28.9,173.2 -17.3,456.1 c 0,0 80.8,-346.4 86.6,-363.7 z m 34.6,548.5 c 28.9,-5.8 0,-467.7 0,-467.7 l -92.4,415.8 c 0,0 63.6,57.7 92.4,51.9 z m 127.1,-565.8 c 11.3,17 112.2,341.8 115.4,352 -1.5,-13 -57.9,-519.9 -69.3,-554.1 -11.5,-34.7 -46.1,-144.4 -103.9,-184.8 -57.7,-40.4 -121.2,-63.5 -121.2,-63.5 l 5.7,34.6 c 11.6,17.4 155.9,179 161.7,277.2 5.8,98.1 0,121.2 11.6,138.6 z m 92.3,409.9 -86.6,-306 -17.3,404.2 z m 132.8,-294.5 -121.2,-184.7 46.2,329.1 z m -132.8,-554.3 c -40.4,-40.4 -259.8,-115.4 -259.8,-115.4 v 34.6 c 0,0 150.1,92.4 207.9,184.8 56.8,90.9 220,411.3 225,421.2 -3.2,-12 -133.2,-485.3 -173.1,-525.2 z m 80.9,80.9 86.6,254 28.9,-202.1 z m 132.8,-196.3 v -225.2 l -115.5,103.9 z m 23.1,155.9 c 0,0 -104,-231 -202.1,-254.1 -98.2,-23.1 -306,-28.9 -306,-28.9 v 52 c 0,0 138.5,52 248.2,121.3 109.7,69.2 121.3,92.3 121.3,92.3 l 127,69.3 z m -422.6,1047.6 c -288.3,0 -532,-634.9 -544.6,-1418.2 -12.4,-783.2 211,-1418.1 499.2,-1418.1 288.2,0 532,634.9 544.5,1418.1 12.5,783.3 -210.9,1418.2 -499.1,1418.2"
         style="fill:#F9CE5C;fill-opacity:1;fill-rule:nonzero;stroke:none"
         transform="matrix(0.13333333,0,0,-0.13333333,0,2800)" />
      <path
         id="path30"
         d="m 19116.3,9882.7 -99.3,-95 -42,-40 c 0,0 2.1,4.1 5.9,11.1 6.3,9.9 16.3,21.3 28.2,33.3 32.8,33.1 80.3,70.3 107.2,90.6"
         style="fill:#F9CE5C;fill-opacity:1;fill-rule:nonzero;stroke:none"
         transform="matrix(0.13333333,0,0,-0.13333333,0,2800)" />
      <path
         id="path31"
         d="m 19777.6,10238.5 40.4,5.7 c 0,0 -46.2,-254 -57.7,-288.7 l -27.1,78.5 44.4,204.5"
         style="fill:#adafb5;fill-opacity:1;fill-rule:nonzero;stroke:none"
         transform="matrix(0.13333333,0,0,-0.13333333,0,2800)" />
      <path
         id="path32"
         d="m 19696.7,9793.9 40.5,-40.5 -80.9,-230.9 -17.3,103.9 57.7,167.5"
         style="fill:#adafb5;fill-opacity:1;fill-rule:nonzero;stroke:none"
         transform="matrix(0.13333333,0,0,-0.13333333,0,2800)" />
      <path
         id="path33"
         d="m 19563.2,9435 -95.2,-120.5 -2.2,-57.6 109.7,121.2 -12.3,56.9"
         style="fill:#adafb5;fill-opacity:1;fill-rule:nonzero;stroke:none"
         transform="matrix(0.13333333,0,0,-0.13333333,0,2800)" />
      <path
         id="path34"
         d="m 19406.8,9257.4 7,-69.8 c 0,0 -103.9,-11.6 -132.8,5.8 l 11.6,40.4 c 0,0 89.8,1.1 114.2,23.6"
         style="fill:#adafb5;fill-opacity:1;fill-rule:nonzero;stroke:none"
         transform="matrix(0.13333333,0,0,-0.13333333,0,2800)" />
      <path
         id="path35"
         d="m 19793.8,10470.5 3.1,106.1 26.9,-20.6 17.3,-103.9 -47.3,18.4"
         style="fill:#adafb5;fill-opacity:1;fill-rule:nonzero;stroke:none"
         transform="matrix(0.13333333,0,0,-0.13333333,0,2800)" />
      <path
         id="path36"
         d="M 19206,9251.1 V 9228 c 0,0 -98.2,46.2 -98.2,92.4 0,0 63.5,-69.3 98.2,-69.3"
         style="fill:#adafb5;fill-opacity:1;fill-rule:nonzero;stroke:none"
         transform="matrix(0.13333333,0,0,-0.13333333,0,2800)" />
      <path
         id="path37"
         d="m 19942.1,10992 c 0,0 40.5,1068.2 -103.9,1235.6 -144.3,167.5 -288.7,155.9 -288.7,155.9 0,0 -381.1,-11.6 -612,-756.4 -231,-744.8 -594.8,-2026.7 -594.8,-2026.7 l 238.8,-266.8 c 28.9,-32.3 21,-82.8 -16.2,-104.8 l -302,-178.7 c -24,-14.1 -49.4,-25.7 -75.8,-34.3 L 17436.2,8769 c 0,0 -2211.4,-773.7 -2228.7,-779.5 -17.4,-5.8 -1229.9,-467.7 -1229.9,-467.7 0,0 65.1,155.3 121.9,394 108.8,457.9 187.1,1223.1 -283.6,1788.6 -11.5,236.7 -40.4,785.2 -254,970 -213.7,184.8 -739.1,381.1 -1316.5,-681.3 C 11668,8930.7 11604.5,6852 11604.5,6852 c 0,0 86.6,-92.4 86.6,-109.7 0,-17.3 -2142.16,-398.4 -2702.23,-433 -560.08,-34.7 -2944.74,28.8 -3002.48,51.9 -36.03,14.5 -132.75,107.5 -200.36,175.4 -46.88,47.2 -109.36,75.4 -175.59,79.8 l -2170.73,143.7 c -53.53,3.5 -106.53,12.6 -158.15,27 l -1187.71,331.3 c -53.06,14.8 -107.92,22.1 -162.94,21.6 l -563.72,-5.1 c 0,0 -906.518,502.4 -386.858,721.8 L 1167.41,8428 c 17.15,52.4 17.38,108.9 0.58,161.5 -59.71,187 -200.131,642.5 -181.885,733.8 0,0 -66.917,93.6 -105.953,186.3 -25.347,59.9 -24.363,127.8 2.832,187 115.133,250.6 568.736,1149.6 1425.366,1809.3 1004.68,773.7 1501.24,687.1 1922.74,715.9 404.18,236.8 675.56,375.3 675.56,375.3 0,0 -102.14,102.2 -159.3,173.6 -25.93,32.4 -27.72,78.1 -3.76,112 79.68,112.9 311.22,350 786.65,211 0,0 57.74,-5.8 34.65,-144.3 0,0 1905.42,866 2638.71,1050.8 733.3,184.8 2286.5,369.6 2996.7,329.1 710.2,-40.4 1316.5,-115.4 1316.5,-115.4 0,0 1403.1,34.6 1755.3,-11.6 352.2,-46.2 2003.6,-254 2003.6,-254 l 591.7,28.1 c 89.8,4.3 179.4,-8.3 264.5,-37.1 l 1182,-401 c 0,0 293.1,-109.9 393.9,-191.1 12.4,-9.9 21.9,-19.5 27.6,-28.3 0,0 742.3,-217.5 1071.7,-382.9 66,-33.2 114,-93.5 131.2,-165.2 22.9,-94.9 47.1,-262.1 50,-549 5.8,-560 46.2,-1056.6 -46.2,-1229.8"
         style="fill:#F9CE5C;fill-opacity:1;fill-rule:nonzero;stroke:none"
         transform="matrix(0.13333333,0,0,-0.13333333,0,2800)" />
      <path
         id="path38"
         d="m 994.77,9360.8 c 0,0 207.86,-306 317.57,-334.9 88.84,-23.4 344.27,-80.8 438.23,-101.8 23.32,-5.2 46.02,-12.7 67.91,-22.2 180.32,-78.9 1055.41,-457 1324.22,-488 300.24,-34.7 2696.45,-69.3 2696.45,-69.3 l 406.79,-13.8 c 11.74,-0.4 23.48,-0.1 35.18,1 189.43,17.2 1852.93,170.1 2228.51,240.9 398.4,75 2979.37,715.9 3360.47,871.8 L 8838.74,8434.1 c 0,0 -941.16,-329.1 -941.16,-415.7 l -109.7,-28.9 -1379.99,86.6 -3042.9,75.1 -1097.06,381 -271.37,5.8 -242.51,115.5 34.64,-508.1 -144.35,-80.8 -132.8,75 c 0,0 -92.38,623.6 -121.25,646.7 -28.87,23.1 -398.407,415.7 -395.52,574.5"
         style="fill:#12100e;fill-opacity:1;fill-rule:nonzero;stroke:none"
         transform="matrix(0.13333333,0,0,-0.13333333,0,2800)" />
      <path
         id="path39"
         d="m 1026.53,8006.8 202.08,98.2 155.9,-86.6 121.26,-259.9 17.32,-40.4 c 0,0 -184.77,-109.7 -202.09,-115.5 -17.32,-5.7 -294.47,127.1 -317.57,138.6 -23.098,11.6 277.15,-340.7 277.15,-340.7 l 750.62,398.4 1385.76,-496.5 2361.56,-121.3 c 0,0 502.34,392.7 606.27,404.2 103.94,11.6 -219.41,132.8 -323.34,132.8 -103.93,0 -2881.22,311.8 -2921.64,317.6 -40.42,5.8 -854.55,282.9 -854.55,282.9 0,0 -473.47,-40.4 -473.47,-69.3 0,-28.8 -132.8,-242.5 -132.8,-242.5 l -196.32,213.7 c 0,0 -115.48,398.4 -144.35,409.9 -28.87,11.6 -161.67,-46.2 -161.67,-46.2 l -17.32,-173.2 -132.8,-404.2"
         style="fill:#12100e;fill-opacity:1;fill-rule:nonzero;stroke:none"
         transform="matrix(0.13333333,0,0,-0.13333333,0,2800)" />
      <path
         id="path40"
         d="m 8804.1,6511.3 c 17.32,0 444.6,63.6 536.98,104 92.38,40.4 785.22,427.3 860.32,456.1 75.1,28.9 1333.8,369.6 1333.8,369.6 l -34.6,-716 c 0,0 -2246.13,-363.8 -2292.32,-363.8 -46.19,0 -404.18,150.1 -404.18,150.1"
         style="fill:#12100e;fill-opacity:1;fill-rule:nonzero;stroke:none"
         transform="matrix(0.13333333,0,0,-0.13333333,0,2800)" />
      <path
         id="path41"
         d="m 11997.1,9918 c 0,0 490.8,1050.9 1189.5,1091.3 0,0 92.3,5.8 69.3,109.7 -23.1,103.9 -11.6,144.4 75,132.8 86.6,-11.5 121.3,-34.6 288.7,-28.9 167.5,5.8 537,121.3 537,121.3 l 52,52 -63.6,502.3 -69.2,115.5 c 0,0 473.4,-40.4 779.4,0 306.1,40.4 952.8,144.3 935.4,121.2 -17.3,-23.1 -23.1,-196.3 -167.4,-242.5 -144.4,-46.2 -819.9,-184.8 -866.1,-184.8 -46.2,0 -288.7,23.1 -288.7,23.1 l 103.9,-594.7 c 0,0 -161.7,11.6 -248.3,0 -86.6,-11.5 -311.8,-75 -357.9,-86.6 -46.2,-11.5 -155.9,-69.3 -225.2,-46.2 -69.3,23.1 -242.5,75.1 -242.5,75.1 l -52,-63.5 -52,-57.8 c 0,0 380.2,-130.3 482.1,-443.6 3.2,-9.8 3.2,-68.8 5.8,-78.9 0,0 1348.3,926.7 2150.8,1244.3 802.6,317.5 2659,1267.4 2659,1267.4 0,0 421.3,-68.9 254,-138.6 -69.3,-28.9 -666.9,-482.1 -788.1,-539.9 0,0 612,375.3 756.4,421.5 103.1,33 247.4,39.5 321.5,40.5 23.3,0.3 39.2,-23.6 29.9,-45 -41.1,-94.3 -152.7,-311.8 -339.9,-405.4 -242.5,-121.3 -531.2,-202.1 -531.2,-202.1 l -210.7,-210.8 -124.2,-378.2 c 0,0 282.9,202.1 334.9,283 52,80.8 80.8,144.3 80.8,144.3 0,0 173.3,-127 369.6,40.4 196.3,167.5 398.4,421.5 479.2,456.2 80.9,34.6 127,-40.5 127,-40.5 -294.4,-51.9 -600.4,-877.6 -652.4,-1131.6 36.7,-53.1 -542.8,-2026.7 -542.8,-2026.7 l -2361.5,-802.6 -531.2,46.2 -1224.1,-577.4 23.1,352.2 46.2,219.4 2656,1097.1 c 0,0 -456.1,-225.2 -577.4,-132.8 -121.3,92.4 -11.5,179 11.5,207.8 23.1,28.9 57.8,132.8 11.6,127.1 -46.2,-5.8 -2113.3,-1177.9 -2113.3,-1177.9 0,0 5.8,692.8 -363.7,1114.3 0,0 98.1,1102.9 -646.7,1137.5 0,0 -334.9,219.4 -952.7,-825.7 l -236.8,-80.8"
         style="fill:#F9CE5C;fill-opacity:1;fill-rule:nonzero;stroke:none"
         transform="matrix(0.13333333,0,0,-0.13333333,0,2800)" />
      <path
         id="path42"
         d="m 19647.7,12377.7 c 0,0 127,34.7 109.7,92.4 l 115.5,-109.7 c 0,0 57.7,115.5 80.8,132.8 23.1,17.3 34.6,17.3 34.6,17.3 l 23.1,-843 -34.6,46.2 c 0,0 -17.3,589 -329.1,664"
         style="fill:#12100e;fill-opacity:1;fill-rule:nonzero;stroke:none"
         transform="matrix(0.13333333,0,0,-0.13333333,0,2800)" />
      <path
         id="path43"
         d="m 15698.3,12354.6 c 0,0 664,346.5 1154.8,456.2 490.7,109.7 1039.3,236.7 1039.3,236.7 l -571.7,254.1 c 0,0 -1177.9,485 -1299.1,508.1 -121.3,23.1 -895,132.8 -1339.6,34.6 -444.6,-98.1 -912.3,-242.5 -1177.9,-646.7 -265.6,-404.1 1183.7,-80.8 1224.1,-80.8 40.4,0 814.2,-46.2 831.5,-57.7 17.3,-11.6 75,-398.4 75,-421.5 0,-23.1 11.6,-196.4 11.6,-196.4 l 52,-86.6"
         style="fill:#12100e;fill-opacity:1;fill-rule:nonzero;stroke:none"
         transform="matrix(0.13333333,0,0,-0.13333333,0,2800)" />
      <path
         id="path44"
         d="m 13651.4,11341.3 c -155.9,17.3 -918.1,196.3 -918.1,196.3 0,0 -398.4,-17.3 -646.7,69.3 -248.3,86.6 -1420.4,329.1 -1420.4,329.1 l -5242.78,248.3 -1200.99,34.6 c 0,0 -791.04,28.9 -1316.47,-329.1 -496.56,-265.6 -1177.89,-721.7 -1495.46,-1304.9 -317.57,-583.2 -623.598,-895 -548.535,-1027.8 l 167.445,-334.9 c 0,0 225.19,-155.9 271.38,-167.4 46.19,-11.6 652.46,1310.7 1281.83,1761.1 629.36,450.3 1252.95,721.7 1518.56,773.7 236.74,46.3 872.55,-3.7 1007.95,-15.1 C 4741.09,11573 2640.77,10458 2438.27,10024.8 l 63.51,-40.4 1131.7,-340.7 513.89,63.6 c 54.31,-7.2 415.73,-190.6 415.73,-190.6 l 1996.77,-16.9 c 744.64,667.4 1589.92,1084.9 2141.82,1310.7 215.74,104.5 418.19,179.7 596.09,213.2 0,0 -235.41,-65.7 -596.09,-213.2 C 7832.49,10389.3 6747.27,9490.9 6179.75,8913.8 L 5797.8,8397.3 c 1.57,-2.2 3.52,-4.2 5.89,-5.8 l 4.64,-1.4 388.81,-16.6 c 0,0 2442.4,230.9 2494.37,265.6 51.96,34.6 294.47,409.9 294.47,409.9 l -975.81,-75 -467.69,565.8 c 0,0 450.37,294.5 508.11,311.8 57.74,17.3 2378.91,525.4 2413.51,525.4 34.7,0 1570.5,1016.3 2032.5,964.3 461.9,-52 871.8,-121.3 871.8,-121.3 0,0 398.4,-11.5 450.4,75.1 52,86.6 -11.5,28.9 -167.4,46.2"
         style="fill:#F9CE5C;fill-opacity:1;fill-rule:nonzero;stroke:none"
         transform="matrix(0.13333333,0,0,-0.13333333,0,2800)" />
      <path
         id="path45"
         d="m 5792.96,8390.8 12.79,-0.6 c -0.71,0.4 -1.41,0.8 -2.06,1.3 l -8.39,2.4 -2.34,-3.1"
         style="fill:#F9CE5C;fill-opacity:1;fill-rule:nonzero;stroke:none"
         transform="matrix(0.13333333,0,0,-0.13333333,0,2800)" />
      <path
         id="path46"
         d="m 1058.28,8079 c 0,0 40.42,-57.8 103.93,-11.6 63.52,46.2 144.35,92.4 144.35,92.4 l -69.28,-92.4 c 0,0 46.19,63.6 121.25,-23.1 75.06,-86.6 144.35,-213.6 144.35,-213.6 l 92.38,11.6 -132.8,-155.9 473.47,306 L 3183.11,7594 1964.8,7946.2 c 0,0 -617.82,-386.9 -640.91,-386.9 -23.1,0 -334.898,271.4 -334.898,271.4 l 69.288,248.3"
         style="fill:#F9CE5C;fill-opacity:1;fill-rule:nonzero;stroke:none"
         transform="matrix(0.13333333,0,0,-0.13333333,0,2800)" />
      <path
         id="path47"
         d="m 3506.46,7547.8 2295.46,-160.3 c 13.09,-0.9 25.77,-4.9 37.02,-11.7 l 1224.13,-735.6 c 11.49,-6.9 24.48,-10.9 37.86,-11.7 l 1140.2,-68.1 -1167.89,28.4 c -14.13,0.3 -27.94,4.3 -40.13,11.4 l -1241.44,730.3 c -10.56,6.2 -22.36,10 -34.56,11.1 l -2250.65,206.2"
         style="fill:#F9CE5C;fill-opacity:1;fill-rule:nonzero;stroke:none"
         transform="matrix(0.13333333,0,0,-0.13333333,0,2800)" />
      <path
         id="path48"
         d="m 1514.43,8852.7 288.7,-11.5 86.61,-57.8 c 0,0 -265.61,23.1 -271.38,11.6 -5.77,-11.6 -28.87,-86.6 -17.32,-213.7 11.55,-127 40.42,-456.1 40.42,-456.1 0,0 -98.16,40.4 -98.16,63.5 0,23.1 -34.65,606.3 -34.65,606.3 l 5.78,57.7"
         style="fill:#F9CE5C;fill-opacity:1;fill-rule:nonzero;stroke:none"
         transform="matrix(0.13333333,0,0,-0.13333333,0,2800)" />
      <path
         id="path49"
         d="m 4903.76,12669.3 c 0,0 392.64,438.8 646.69,415.7 0,0 -479.24,213.7 -819.91,-225.1 0,0 -17.32,-167.5 173.22,-190.6"
         style="fill:#12100e;fill-opacity:1;fill-rule:nonzero;stroke:none"
         transform="matrix(0.13333333,0,0,-0.13333333,0,2800)" />
      <path
         id="path50"
         d="m 7785.43,13829.8 c -13.02,3.3 -13.44,21.6 -0.56,25.4 306.49,89.9 2087.61,584.8 3701.23,448.2 624.7,-33.5 980,-88.5 1003.5,-92.2 0.8,-0.2 1.6,-0.2 2.5,-0.2 44,1.9 1231.3,50.8 1678.9,-11.6 456.2,-63.5 2142.2,-254 2142.2,-254 l 275.3,-28.7 c 1.2,-0.1 2.4,-0.4 3.5,-0.9 l 1645.6,-658.2 c 10.5,-4.2 11.1,-18.9 1,-24 l -372.4,-186.2 c -3.5,-1.7 -7.6,-1.8 -11.2,-0.2 -106.3,47.8 -1677.9,754.2 -1772.8,765.4 -98.1,11.5 -1113.1,92.3 -1414,29 -0.4,-0.1 -0.8,-0.2 -1.2,-0.2 -399.6,-41.2 -862.6,-291.2 -1002.1,-439.8 -9.5,-10.1 -26.3,-0.2 -22,13.1 20.9,65.4 70.8,166.9 187.5,236.2 184.7,109.7 -11.6,23.1 -34.7,11.5 -23.1,-11.5 -467.7,-127 -762.1,-259.8 -294.5,-132.8 -4041.85,121.3 -4122.68,144.4 -70.78,20.2 -916.2,230.8 -1125.49,282.8"
         style="fill:#F9CE5C;fill-opacity:1;fill-rule:nonzero;stroke:none"
         transform="matrix(0.13333333,0,0,-0.13333333,0,2800)" />
      <path
         id="path51"
         d="m 14104.6,12071.7 c 0,0 231,300.2 525.5,311.8 294.4,11.6 825.6,-46.2 825.6,-46.2 0,0 132.8,103.9 179,103.9 l -998.9,80.9 c 0,0 -306,80.8 -531.2,-450.4"
         style="fill:#12100e;fill-opacity:1;fill-rule:nonzero;stroke:none"
         transform="matrix(0.13333333,0,0,-0.13333333,0,2800)" />
      <path
         id="path52"
         d="m 15715.6,12331.5 c 0,0 710.2,410 1177.9,479.3 467.7,69.3 941.1,184.8 1131.7,259.8 190.5,75.1 444.6,346.5 664,265.6 0,0 1097,-375.3 1131.7,-398.4 34.6,-23.1 144.3,-109.7 150.1,-225.2 5.8,-115.5 -11.5,-248.3 -11.5,-248.3 0,0 -52,-80.8 -75.1,-80.8 -23.1,0 -98.2,115.5 -98.2,115.5 0,0 -11.5,-138.6 -34.6,-144.4 -23.1,-5.7 -161.7,52 -161.7,52 0,0 225.2,254.1 -46.2,381.1 -271.3,127 -669.7,213.6 -744.8,202.1 -75.1,-11.6 -184.8,-69.3 -184.8,-69.3 l -2367.3,-1114.4 c 0,0 -750.6,-375.3 -848.8,-433 -98.2,-57.8 -843,-213.7 -843,-213.7 l -69.3,433.1 173.2,121.2 c 0,0 213.7,23.1 427.3,63.5 213.6,40.5 490.8,69.3 531.2,115.5 40.4,46.2 167.5,150.1 167.5,236.7 0,86.7 -69.3,202.1 -69.3,202.1"
         style="fill:#F9CE5C;fill-opacity:1;fill-rule:nonzero;stroke:none"
         transform="matrix(0.13333333,0,0,-0.13333333,0,2800)" />
      <path
         id="path53"
         d="m 16801.1,11817.7 c 0,0 -17.3,-462 -86.6,-560.1 -69.3,-98.2 -127.1,-138.6 -127.1,-138.6 0,0 -444.6,-1310.7 -692.8,-1524.3 0,0 34.6,-11.6 69.3,28.8 34.6,40.4 404.1,571.7 658.2,1426.2 86.6,115.5 127,127 155.9,236.7 28.9,109.8 69.3,571.7 69.3,571.7 l -46.2,-40.4"
         style="fill:#12100e;fill-opacity:1;fill-rule:nonzero;stroke:none"
         transform="matrix(0.13333333,0,0,-0.13333333,0,2800)" />
      <path
         id="path54"
         d="m 19382.1,12533.6 c 0,0 -179,213.7 -421.5,-86.6 -242.5,-300.2 -617.9,-427.3 -762.2,-421.5 l -28.9,17.3 c 0,0 -3.2,-9.3 -8.4,-24.8 -130,-55.7 -245.6,-402.4 -245.6,-402.4 l 94.8,-59.4 c -159.4,-440.8 -552,-1487.8 -602.9,-1580.5 -63.6,-115.4 -375.4,-346.4 -502.4,-409.9 -127,-63.5 -2713.8,-1131.7 -2713.8,-1131.7 l -11.5,-75.1 c 0,0 2269.2,935.4 2598.3,1056.7 329.1,121.2 542.7,352.2 669.8,450.3 127,98.2 427.2,975.8 479.2,1131.7 24.2,72.5 84.5,299.5 142.1,521.8 l 5.5,-3.5 c 0,0 227.7,209.3 314.3,267 86.6,57.8 57.8,28.9 259.9,69.3 202.1,40.4 588.9,577.4 739,537 l 155.9,-28.9 -161.6,173.2"
         style="fill:#12100e;fill-opacity:1;fill-rule:nonzero;stroke:none"
         transform="matrix(0.13333333,0,0,-0.13333333,0,2800)" />
      <path
         id="path55"
         d="m 10230.3,10114.3 c 0,0 1443.5,1045.1 2067.1,1045.1 623.6,0 1056.6,-167.4 1056.6,-167.4 l -207.9,311.8 c 0,0 -652.4,92.4 -715.9,80.8 -63.5,-11.5 -525.5,-28.9 -1224.1,-456.1 -698.7,-427.3 -975.8,-814.2 -975.8,-814.2"
         style="fill:#F9CE5C;fill-opacity:1;fill-rule:nonzero;stroke:none"
         transform="matrix(0.13333333,0,0,-0.13333333,0,2800)" />
      <path
         id="path56"
         d="m 1116.02,10117.2 80.84,11.6 923.84,1085.5 c 0,0 1149.02,970 2101.73,1004.6 0,0 -975.8,92.4 -1847.68,-635.1 -871.87,-727.5 -1258.73,-1466.6 -1258.73,-1466.6"
         style="fill:#F9CE5C;fill-opacity:1;fill-rule:nonzero;stroke:none"
         transform="matrix(0.13333333,0,0,-0.13333333,0,2800)" />
      <path
         id="path57"
         d="m 4740.73,12807.1 c 0,0 392.1,318.4 664.43,312.6 0,0 -527.22,102.2 -664.43,-312.6"
         style="fill:#F9CE5C;fill-opacity:1;fill-rule:nonzero;stroke:none"
         transform="matrix(0.13333333,0,0,-0.13333333,0,2800)" />
      <path
         id="path58"
         d="m 7813.25,13806.1 c 0,0 4407.25,147.6 4423.45,145 0,0 1956.6,208.3 2941.5,78.2 0,0 -909,181.7 -1105.3,170.1 -196.3,-11.5 -1587.9,-28.8 -1587.9,-28.8 0,0 -1270.3,207.8 -1547.4,150.1 0,0 -2894,-209.2 -3124.35,-514.6"
         style="fill:#F9CE5C;fill-opacity:1;fill-rule:nonzero;stroke:none"
         transform="matrix(0.13333333,0,0,-0.13333333,0,2800)" />
      <path
         id="path59"
         d="m 14275,12374.8 c 0,0 230.9,98.2 392.6,104 161.7,5.8 865.6,-81.5 865.6,-81.5 l 121.7,52.6 -952.7,92.4 c 0,0 -323.3,-17.3 -427.2,-167.5"
         style="fill:#F9CE5C;fill-opacity:1;fill-rule:nonzero;stroke:none"
         transform="matrix(0.13333333,0,0,-0.13333333,0,2800)" />
      <path
         id="path60"
         d="m 16255.4,13916.5 1883,-754.8 c 0,0 224.6,85 166.8,102.3 -57.7,17.4 -1888,677.8 -1888,677.8 l -161.8,-25.3"
         style="fill:#F9CE5C;fill-opacity:1;fill-rule:nonzero;stroke:none"
         transform="matrix(0.13333333,0,0,-0.13333333,0,2800)" />
      <path
         id="path61"
         d="m 18564.9,13328.1 c 0,0 63.7,-104.5 144.5,-116 80.8,-11.6 1027.8,-283 1097.1,-375.3 69.2,-92.4 115.4,-311.8 144.3,-433.1 0,0 -17.3,46.2 8.7,60.6 25.9,14.5 11.2,286.4 -47.8,369.8 -59.1,83.5 -232.3,170.1 -232.3,170.1 l -942.9,308.3 -90.6,90.1 -81,-74.5"
         style="fill:#F9CE5C;fill-opacity:1;fill-rule:nonzero;stroke:none"
         transform="matrix(0.13333333,0,0,-0.13333333,0,2800)" />
      <path
         id="path62"
         d="m 3673.9,12132.3 c 0,0 40.42,-173.2 456.15,-300.2 415.73,-127 1125.93,-173.2 1414.63,-231 288.7,-57.7 2378.88,-179 2887,-311.8 571.62,34.7 2840.82,306.1 3452.82,196.4 612.1,-109.8 1056.7,-104 1339.6,-236.8 282.9,-132.8 733.3,52 750.6,103.9 17.3,52 63.5,190.6 -69.3,202.1 -132.8,11.6 -1172.1,-17.3 -1172.1,-17.3 l -554.3,57 -2869.68,254.8 -4469.07,485 -557.71,-125.3 c 0,0 -568,-35.8 -622.96,-50.5"
         style="fill:#F9CE5C;fill-opacity:1;fill-rule:nonzero;stroke:none"
         transform="matrix(0.13333333,0,0,-0.13333333,0,2800)" />
      <path
         id="path63"
         d="m 1820.45,8968.2 c 0,0 271.76,1329.6 2344.44,2220.9 0,0 -2021.1,-1100.8 -2217.41,-2307.5"
         style="fill:#F9CE5C;fill-opacity:1;fill-rule:nonzero;stroke:none"
         transform="matrix(0.13333333,0,0,-0.13333333,0,2800)" />
      <path
         id="path64"
         d="m 12236.7,11565 c 0,0 712.5,1549.8 1097.1,1958.9 0,0 -248.3,-121.3 -282.9,-161.7 -34.7,-40.4 -952.7,-1795.7 -952.7,-1795.7 l 138.5,-1.5"
         style="fill:#F9CE5C;fill-opacity:1;fill-rule:nonzero;stroke:none"
         transform="matrix(0.13333333,0,0,-0.13333333,0,2800)" />
      <path
         id="path65"
         d="m 11930.7,9176 -746.3,-266.1 c -37.4,-13.4 -48.7,-60.7 -21.4,-89.5 l 19.2,-20.3 c 16.4,-17.3 41.2,-23.9 64,-17 l 632.6,190.9 51.9,202"
         style="fill:#12100e;fill-opacity:1;fill-rule:nonzero;stroke:none"
         transform="matrix(0.13333333,0,0,-0.13333333,0,2800)" />
      <path
         id="path66"
         d="m 11570.2,9014.8 141.1,44.8 v -106.5 l -167.4,-53.3 v 78.9 c 0,16.5 10.6,31.1 26.3,36.1"
         style="fill:#F9CE5C;fill-opacity:1;fill-rule:nonzero;stroke:none"
         transform="matrix(0.13333333,0,0,-0.13333333,0,2800)" />
      <path
         id="path67"
         d="m 17917.7,9811.8 373.7,147.6 c 7.7,3 15.4,-4.4 12.6,-12.2 l -15.9,-45.4 c -11.1,-31.8 -35.7,-57.2 -67.2,-69.2 L 17870,9698 c -9,-3.5 -18.2,4.4 -16.1,13.8 l 7.7,34.3 c 6.6,29.9 27.6,54.5 56.1,65.7"
         style="fill:#392e50;fill-opacity:1;fill-rule:nonzero;stroke:none"
         transform="matrix(0.13333333,0,0,-0.13333333,0,2800)" />
      <path
         id="path68"
         d="m 19942.1,10992 c 0,0 40.5,1068.2 -103.9,1235.6 -144.3,167.5 -288.7,155.9 -288.7,155.9 0,0 -381.1,-11.6 -612,-756.4 -231,-744.8 -594.8,-2026.7 -594.8,-2026.7 l 238.8,-266.8 c 28.9,-32.3 21,-82.8 -16.2,-104.8 l -302,-178.7 c -24,-14.1 -49.4,-25.7 -75.8,-34.3 L 17436.2,8769 c 0,0 -2211.4,-773.7 -2228.7,-779.5 -17.4,-5.8 -1229.9,-467.7 -1229.9,-467.7 0,0 65.1,155.3 121.9,394 108.8,457.9 187.1,1223.1 -283.6,1788.6 -11.5,236.7 -40.4,785.2 -254,970 -213.7,184.8 -739.1,381.1 -1316.5,-681.3 C 11668,8930.7 11604.5,6852 11604.5,6852 c 0,0 86.6,-92.4 86.6,-109.7 0,-17.3 -2142.16,-398.4 -2702.23,-433 -560.08,-34.7 -2944.74,28.8 -3002.48,51.9 -36.03,14.5 -132.75,107.5 -200.36,175.4 -46.88,47.2 -109.36,75.4 -175.59,79.8 l -2170.73,143.7 c -53.53,3.5 -106.53,12.6 -158.15,27 l -1187.71,331.3 c -53.06,14.8 -107.92,22.1 -162.94,21.6 l -563.72,-5.1 c 0,0 -906.518,502.4 -386.858,721.8 L 1167.41,8428 c 17.15,52.4 17.38,108.9 0.58,161.5 -59.71,187 -200.131,642.5 -181.885,733.8 0,0 -66.917,93.6 -105.953,186.3 -25.347,59.9 -24.363,127.8 2.832,187 115.133,250.6 568.736,1149.6 1425.366,1809.3 1004.68,773.7 1501.24,687.1 1922.74,715.9 404.18,236.8 675.56,375.3 675.56,375.3 0,0 -102.14,102.2 -159.3,173.6 -25.93,32.4 -27.72,78.1 -3.76,112 79.68,112.9 311.22,350 786.65,211 0,0 57.74,-5.8 34.65,-144.3 0,0 1905.42,866 2638.71,1050.8 733.3,184.8 2286.5,369.6 2996.7,329.1 710.2,-40.4 1316.5,-115.4 1316.5,-115.4 0,0 1403.1,34.6 1755.3,-11.6 352.2,-46.2 2003.6,-254 2003.6,-254 l 591.7,28.1 c 89.8,4.3 179.4,-8.3 264.5,-37.1 l 1182,-401 c 0,0 293.1,-109.9 393.9,-191.1 12.4,-9.9 21.9,-19.5 27.6,-28.3 0,0 742.3,-217.5 1071.7,-382.9 66,-33.2 114,-93.5 131.2,-165.2 22.9,-94.9 47.1,-262.1 50,-549 5.8,-560 46.2,-1056.6 -46.2,-1229.8 z"
         style="fill:none;stroke:#100f0d;stroke-width:70;stroke-linecap:round;stroke-linejoin:round;stroke-miterlimit:10;stroke-dasharray:none;stroke-opacity:1"
         transform="matrix(0.13333333,0,0,-0.13333333,0,2800)" />
      <path
         id="path69"
         d="m 1139.5,10098 c 112.23,174.6 560.37,854 907.91,1124.9 21.16,16.5 52.25,4.1 56.53,-22.4 l 108.62,-671.4 c 5.85,-36.2 -3.87,-73.1 -26.76,-101.7 l -107.86,-134.8 c -26.94,-33.7 -61.34,-60.7 -100.48,-78.8 l -621.14,-287.4 c -55.11,-25.5 -120.44,-11.4 -160.21,34.4 l -51,58.9 c -19.05,22 -21.34,53.8 -5.61,78.3"
         style="fill:#12100e;fill-opacity:1;fill-rule:nonzero;stroke:none"
         transform="matrix(0.13333333,0,0,-0.13333333,0,2800)" />
      <path
         id="path70"
         d="m 11691.1,6742.3 c 0,-17.3 -2142.16,-398.4 -2702.23,-433 -560.08,-34.7 -2944.74,28.8 -3002.48,51.9 -36.03,14.5 -132.75,107.5 -200.36,175.4 -46.88,47.2 -109.36,75.4 -175.59,79.8 l -2170.73,143.7 c -53.53,3.5 -106.53,12.6 -158.15,27 l -1187.71,331.3 c -53.06,14.8 -107.92,22.1 -162.94,21.6 l -479.79,-4.3 c -56.93,-0.5 -112.81,15.1 -161.16,45.2 -207.57,129 -733.878,496.7 -309.628,675.8 0,0 111.338,-204.1 279.958,-313 34.58,-22.3 79.16,-21.9 114.03,0 l 518.47,325.2 c 40.23,25.3 89.45,31.8 134.88,17.9 l 1199.83,-366 c 60.69,-18.5 123.21,-30.4 186.46,-35.4 L 5733.35,7302 c 44.88,-3.5 88.28,-17.6 126.67,-41.2 l 1045.25,-640.1 c 67.5,-41.4 144.87,-63.8 224.02,-65 l 2171.37,-32.8 c 0,0 2171.04,306 2303.84,329.1 0,0 86.6,-92.4 86.6,-109.7"
         style="fill:#12100e;fill-opacity:1;fill-rule:nonzero;stroke:none"
         transform="matrix(0.13333333,0,0,-0.13333333,0,2800)" />
      <path
         id="path71"
         d="m 7607.92,9599.8 215.56,185.8 c 52.63,45.4 115.25,77.6 182.78,94 441.95,107.2 2169.94,520.4 2466.54,500.3 l 40.4,-40.4 C 9994.85,9940.7 9502.48,9532.9 9035.11,9116.3 c -18.82,-15.6 -42,-25 -66.35,-26.8 l -883.3,-67.6 c -38.17,-2.9 -75.39,12.8 -99.87,42.3 l -383.82,461.5 c -18.49,22.3 -15.75,55.2 6.15,74.1"
         style="fill:#12100e;fill-opacity:1;fill-rule:nonzero;stroke:none"
         transform="matrix(0.13333333,0,0,-0.13333333,0,2800)" />
      <path
         id="path72"
         d="m 3922.69,12193.7 308.4,-197.1 236.74,-46.2 -467.7,-80.8 -317.57,248.3 240.13,75.8"
         style="fill:#12100e;fill-opacity:1;fill-rule:nonzero;stroke:none"
         transform="matrix(0.13333333,0,0,-0.13333333,0,2800)" />
      <path
         id="path73"
         d="m 4300.38,12210.3 1218.31,588.9 c 0,0 1870.78,912.3 2332.7,1062.4 0,0 2009.35,0 2840.81,-51.9 720,-45 2119.7,-176.6 2534.6,-222.3 49.8,-5.5 74.1,-63.6 43,-103 -181.1,-228.8 -664.6,-890.6 -1036.1,-1860.2 -13.9,-36.1 -49,-59.6 -87.7,-58.3 -365.4,12 -2205,58.6 -3659.47,-164 l -2828.8,243.3 c -39.03,3.4 -77.45,11.7 -114.35,24.9 -218.3,77.8 -1009.83,366.5 -1243,540.2"
         style="fill:#12100e;fill-opacity:1;fill-rule:nonzero;stroke:none"
         transform="matrix(0.13333333,0,0,-0.13333333,0,2800)" />
      <path
         id="path74"
         d="m 10097.5,11350 -43.3,135.7 c 0,0 1446.4,77.9 1891,31.7 l -410,-127 5.8,57.7 c 0,0 -1345.4,-80.8 -1443.5,-98.1"
         style="fill:#12100e;fill-opacity:1;fill-rule:nonzero;stroke:none"
         transform="matrix(0.13333333,0,0,-0.13333333,0,2800)" />
      <path
         id="path75"
         d="m 12718.9,11534.7 c 0,0 519.6,1703.4 1143.2,1969 623.6,265.6 1004.7,323.3 1726.4,173.2 167.5,51.9 323.4,109.7 502.4,69.3 179,-40.4 1691.8,-687.1 1691.8,-687.1 l -948.6,111.9 c -50.4,5.9 -100.8,-10.1 -138.6,-43.9 l -217.8,-195.1 -155.9,-5.7 c 0,0 -75,-161.7 -242.5,-271.4 -167.4,-109.7 -398.4,-283 -398.4,-283 l -57.7,69.3 -930.3,69.8 c -140.3,10.5 -339.8,-51.4 -426.6,-162.1 l -196.3,-329.2 75,-115.4 51.8,-398.3 c 3.6,-27.8 -10.7,-54.8 -35.6,-67.5 l -152.1,-77.2 c -109.9,-55.8 -235.9,-71.1 -355.9,-43.3 l -934.3,216.7"
         style="fill:#12100e;fill-opacity:1;fill-rule:nonzero;stroke:none"
         transform="matrix(0.13333333,0,0,-0.13333333,0,2800)" />
      <path
         id="path76"
         d="m 18707.8,13347.2 c -177.9,-28.4 -457.4,-143.8 -457.4,-143.8 -581.7,252.4 -1250.7,500.1 -1974.7,744.9 l 591.7,28.1 c 89.8,4.3 179.4,-8.3 264.5,-37.1 l 1182,-401 c 0,0 293.1,-109.9 393.9,-191.1"
         style="fill:#12100e;fill-opacity:1;fill-rule:nonzero;stroke:none"
         transform="matrix(0.13333333,0,0,-0.13333333,0,2800)" />
      <path
         id="path77"
         d="m 17401.6,12244.9 c 258.7,-37.9 498.9,-104.5 724,-194.5 27.3,-7.3 43.2,-35.6 35.2,-62.7 -80,-270.1 -472.2,-1571.6 -732,-2007.3 -34.5,-57.7 -78.6,-109.1 -130.3,-152.2 -97.2,-81.2 -313.6,-252.1 -474.3,-308.6 0,0 121.2,98.2 109.7,144.3 l -316.4,143.5 c -103.8,47.1 -158.1,162.6 -128.1,272.6 212.4,551.2 379.2,1186.8 513.8,1882 0,0 127,121.3 196.3,127 69.3,5.8 207.9,57.8 207.9,57.8 l -5.8,98.1"
         style="fill:#12100e;fill-opacity:1;fill-rule:nonzero;stroke:none"
         transform="matrix(0.13333333,0,0,-0.13333333,0,2800)" />
      <path
         id="path78"
         d="m 18565.3,9228.8 -302,-178.7 c -24,-14.1 -49.4,-25.7 -75.8,-34.3 L 17436.2,8769 c 0,0 -2211.4,-773.7 -2228.7,-779.5 -17.4,-5.8 -1229.9,-467.7 -1229.9,-467.7 0,0 65.1,155.3 121.9,394 131.5,48.1 1738.8,607 1956.7,668.4 225.2,63.5 2194.2,664 2194.2,664 0,0 5.7,104 17.3,161.7 11.5,57.7 75,190.5 75,190.5 l 238.8,-266.8 c 28.9,-32.3 21,-82.8 -16.2,-104.8"
         style="fill:#12100e;fill-opacity:1;fill-rule:nonzero;stroke:none"
         transform="matrix(0.13333333,0,0,-0.13333333,0,2800)" />
      <path
         id="path79"
         d="m 2101.84,10675.1 c 59.59,82.3 120.63,160.5 183.48,238.6 62.77,77.7 127.09,154.1 192.99,229.2 65.93,75 133.28,148.7 202.47,220.7 69.33,71.9 140.37,142.1 213.21,210.4 73.09,68.1 148.43,133.7 225.83,196.9 77.55,62.9 158.15,122.2 241.26,177.7 82.93,55.7 170.18,105.2 260.41,148 90.33,42.5 184.54,77.6 282.16,98.7 1.79,0.3 3.56,-0.8 3.95,-2.6 0.37,-1.7 -0.73,-3.5 -2.44,-3.9 -95.94,-25.3 -187.46,-64.2 -274.73,-110.2 -87.17,-46.3 -170.92,-98.9 -250.28,-157.6 -79.51,-58.4 -156.32,-120.4 -230.02,-186 -73.55,-65.7 -144.94,-133.8 -214.02,-204.2 -68.86,-70.7 -135.83,-143.1 -201.04,-217.1 -65.09,-74.2 -128.28,-150 -189.99,-226.9 -61.67,-77 -121.71,-155.2 -180.09,-234.6 -58.15,-79.2 -115.65,-160.3 -168.82,-241.2 l -0.44,-0.7 c -17.29,-26.3 -52.66,-33.6 -79,-16.3 -26.33,17.3 -33.65,52.6 -16.36,79 0.44,0.6 1.01,1.4 1.47,2.1"
         style="fill:#100f0d;fill-opacity:1;fill-rule:nonzero;stroke:none"
         transform="matrix(0.13333333,0,0,-0.13333333,0,2800)" />
      <path
         id="path80"
         d="m 1976.35,10261.6 c 0,0 479.24,-236.8 525.43,-271.4 L 3578.9,9658.8 c 32.18,-9.9 66.09,-13 99.52,-9 l 438.07,52.4 c 27.74,3.3 55.85,-1.2 81.21,-12.9 l 312.58,-144.6 c 23.41,-10.8 48.81,-16.7 74.6,-17.2 l 2039.54,-39.7 c 0,0 830.71,87 972.54,86.8"
         style="fill:none;stroke:#100f0d;stroke-width:40;stroke-linecap:round;stroke-linejoin:round;stroke-miterlimit:10;stroke-dasharray:none;stroke-opacity:1"
         transform="matrix(0.13333333,0,0,-0.13333333,0,2800)" />
      <path
         id="path81"
         d="m 8362.63,9983 c 254.36,149.9 511.2,292.8 770.64,432 259.39,139 521.47,273 786.7,400.5 265.33,127.3 534.03,247.9 808.03,355.6 137.1,53.3 275.6,103.5 416,147.7 140.4,44.1 282.9,82.4 428.1,106.9 2.5,0.5 4.9,-1.2 5.4,-3.8 0.4,-2.5 -1.3,-4.8 -3.8,-5.3 -143.8,-28.3 -284.6,-70.3 -423.1,-117.9 -138.6,-47.8 -275.1,-101.4 -410.2,-158.2 -269.9,-114.6 -534.3,-241.9 -795.24,-375.7 -260.82,-134.2 -518.34,-274.7 -773.03,-420.2 -254.47,-145.4 -507.33,-295.2 -755.07,-450.2 l -0.42,-0.3 c -24.36,-15.2 -56.46,-7.9 -71.71,16.5 -15.25,24.4 -7.86,56.5 16.5,71.7 0.33,0.2 0.87,0.6 1.2,0.7"
         style="fill:#100f0d;fill-opacity:1;fill-rule:nonzero;stroke:none"
         transform="matrix(0.13333333,0,0,-0.13333333,0,2800)" />
      <path
         id="path82"
         d="m 8968.76,9089.5 c 0,0 684.12,95.2 1082.54,222.2 398.4,127.1 2194.1,681.4 2194.1,681.4"
         style="fill:none;stroke:#100f0d;stroke-width:50;stroke-linecap:round;stroke-linejoin:round;stroke-miterlimit:10;stroke-dasharray:none;stroke-opacity:1"
         transform="matrix(0.13333333,0,0,-0.13333333,0,2800)" />
      <path
         id="path83"
         d="m 13989.1,11401.9 c 0,0 92.4,-531.2 69.3,-687.1 0,0 -11.5,-138.6 -5.7,-271.4 5.7,-132.8 127,-941.1 80.8,-1316.4"
         style="fill:none;stroke:#100f0d;stroke-width:50;stroke-linecap:round;stroke-linejoin:round;stroke-miterlimit:10;stroke-dasharray:none;stroke-opacity:1"
         transform="matrix(0.13333333,0,0,-0.13333333,0,2800)" />
      <path
         id="path84"
         d="m 14474.2,12481.7 c -167.5,-23.1 -386.9,-421.5 -404.2,-438.9 -17.3,-17.3 57.7,-92.4 57.7,-92.4 l 46.2,-398.3 34.7,-161.7 -57.8,-69.3 c 0,0 -69.3,-52 34.7,-98.2 73.4,-32.6 236.3,-68.1 325.5,-86.2 29.3,-5.9 55.4,19.7 49.9,49.2 l -104.1,556.7 c 0,0 144.4,-52 410,-11.6 199.1,30.3 527.9,99.6 680.1,132.3 56.2,12.1 106.5,43.2 142.2,88.3 22.2,27.9 46.7,61.3 66.2,94.4 28.5,48.4 32.3,107.2 10.9,158.6 -3.8,9.1 -24.9,71.3 -27.5,80.7 -11.2,40.2 -52,132.9 -115.5,155.9"
         style="fill:none;stroke:#100f0d;stroke-width:50;stroke-linecap:round;stroke-linejoin:round;stroke-miterlimit:10;stroke-dasharray:none;stroke-opacity:1"
         transform="matrix(0.13333333,0,0,-0.13333333,0,2800)" />
      <path
         id="path85"
         d="m 14150.8,11690.6 c 0,0 45.8,-109.9 308.7,17.2"
         style="fill:none;stroke:#100f0d;stroke-width:50;stroke-linecap:round;stroke-linejoin:round;stroke-miterlimit:10;stroke-dasharray:none;stroke-opacity:1"
         transform="matrix(0.13333333,0,0,-0.13333333,0,2800)" />
      <path
         id="path86"
         d="m 14456.8,11742.6 c 0,0 -300.2,92.4 -386.8,277.1"
         style="fill:none;stroke:#100f0d;stroke-width:50;stroke-linecap:round;stroke-linejoin:round;stroke-miterlimit:10;stroke-dasharray:none;stroke-opacity:1"
         transform="matrix(0.13333333,0,0,-0.13333333,0,2800)" />
      <path
         id="path87"
         d="m 16007.2,12646.2 c 0,0 825.6,-86.6 1183.6,-358 0,0 96.4,1.8 404.8,-72.7 308.3,-74.5 1024.3,-317 1324.5,-571.1"
         style="fill:none;stroke:#100f0d;stroke-width:50;stroke-linecap:round;stroke-linejoin:round;stroke-miterlimit:10;stroke-dasharray:none;stroke-opacity:1"
         transform="matrix(0.13333333,0,0,-0.13333333,0,2800)" />
      <path
         id="path88"
         d="m 17343.8,13215 474.8,-163.4 c 39.9,-13.7 83.6,-11.4 121.8,6.5 l 373.5,191.5"
         style="fill:none;stroke:#100f0d;stroke-width:50;stroke-linecap:round;stroke-linejoin:round;stroke-miterlimit:10;stroke-dasharray:none;stroke-opacity:1"
         transform="matrix(0.13333333,0,0,-0.13333333,0,2800)" />
      <path
         id="path89"
         d="m 14470.3,11738.5 c 0,0 151.2,-31.2 185.8,-26.6 l -172.6,-106.2 -13.2,132.8"
         style="fill:#12100e;fill-opacity:1;fill-rule:nonzero;stroke:none"
         transform="matrix(0.13333333,0,0,-0.13333333,0,2800)" />
      <path
         id="path90"
         d="m 13957.4,10486.7 c 0,0 2171,1247.2 2505.9,1414.7 334.9,167.4 1830.4,941.1 2234.5,1056.6 l -1270.2,-843 -423.7,-230.8 c 0,0 -2902.2,-1310.8 -3046.5,-1397.5"
         style="fill:#12100e;fill-opacity:1;fill-rule:nonzero;stroke:none"
         transform="matrix(0.13333333,0,0,-0.13333333,0,2800)" />
      <path
         id="path91"
         d="m 14162.4,8422.5 c 0,0 2645.5,1076.7 2711.4,1124.4 65.9,47.8 158.2,105.5 192.9,174.8"
         style="fill:none;stroke:#100f0d;stroke-width:50;stroke-linecap:round;stroke-linejoin:round;stroke-miterlimit:10;stroke-dasharray:none;stroke-opacity:1"
         transform="matrix(0.13333333,0,0,-0.13333333,0,2800)" />
      <path
         id="path92"
         d="m 10109,11367.3 -103.9,288.7"
         style="fill:none;stroke:#100f0d;stroke-width:50;stroke-linecap:round;stroke-linejoin:round;stroke-miterlimit:10;stroke-dasharray:none;stroke-opacity:1"
         transform="matrix(0.13333333,0,0,-0.13333333,0,2800)" />
      <path
         id="path93"
         d="m 2102.4,8701.9 c 5.98,-31.2 -4.42,-59.4 -23.24,-63 -18.81,-3.7 -38.91,18.7 -44.88,49.9 -5.98,31.2 4.42,59.4 23.24,63 18.81,3.6 38.91,-18.7 44.88,-49.9 z"
         style="fill:none;stroke:#100f0d;stroke-width:30;stroke-linecap:butt;stroke-linejoin:miter;stroke-miterlimit:10;stroke-dasharray:none;stroke-opacity:1"
         transform="matrix(0.13333333,0,0,-0.13333333,0,2800)" />
      <path
         id="path94"
         d="m 5276.19,8232.5 c 0,-29 -20.47,-52.5 -45.71,-52.5 -25.24,0 -45.71,23.5 -45.71,52.5 0,29 20.47,52.5 45.71,52.5 25.24,0 45.71,-23.5 45.71,-52.5 z"
         style="fill:none;stroke:#100f0d;stroke-width:30;stroke-linecap:butt;stroke-linejoin:miter;stroke-miterlimit:10;stroke-dasharray:none;stroke-opacity:1"
         transform="matrix(0.13333333,0,0,-0.13333333,0,2800)" />
      <path
         id="path95"
         d="m 9485.43,8405.8 c 0,-29 -20.46,-52.5 -45.71,-52.5 -25.24,0 -45.7,23.5 -45.7,52.5 0,28.9 20.46,52.5 45.7,52.5 25.25,0 45.71,-23.6 45.71,-52.5 z"
         style="fill:none;stroke:#100f0d;stroke-width:30;stroke-linecap:butt;stroke-linejoin:miter;stroke-miterlimit:10;stroke-dasharray:none;stroke-opacity:1"
         transform="matrix(0.13333333,0,0,-0.13333333,0,2800)" />
      <path
         id="path96"
         d="m 14122,7962.2 244.8,276 c 99,111.6 223.4,197.9 362.6,251.5 l 2322.9,894.2 c 0,0 -1166.4,-600.5 -1224.1,-681.3 -57.8,-80.9 -92.4,-115.5 -92.4,-115.5 l 1397.3,202.1 -3064.9,-993.9 53.8,166.9"
         style="fill:#12100e;fill-opacity:1;fill-rule:nonzero;stroke:none"
         transform="matrix(0.13333333,0,0,-0.13333333,0,2800)" />
      <path
         id="path97"
         d="m 10107,7200.4 c -239,348.9 -666.34,754 -1165.42,1180.5 -62.82,53.7 -146.77,75.8 -227.87,59.9 l -529.73,-103.6 c -90.32,-17.7 -172.45,-64.2 -234.02,-132.6 l -108.87,-121 c -30.81,-34.3 -27.53,-87.1 7.28,-117.3 l 975.94,-845.8 -613.68,-4.9 c -66.92,-0.6 -132.7,17.2 -190.21,51.4 l -1438.54,856.1 c -74.68,44.4 -158.15,72 -244.59,80.9 l -376.88,38.5 -2503.92,50.2 c -58.68,1.2 -116.77,11.9 -171.97,31.9 L 2331.58,8571 c -33.53,12.2 -68.99,18.1 -104.66,17.4 -60.35,-1.3 -154.48,-1.2 -181.28,10.2 -40.42,17.4 -57.74,121.3 -57.74,121.3 l -227.81,37.6 c -35.2,5.8 -66.4,-23.2 -63.16,-58.7 l 25.36,-469.7 c 1.48,-45.1 -17.68,-82.9 -62.79,-82 l -26.43,0.5 c -18.26,0.4 -33.34,14.4 -35.08,32.6 l -40.01,586.2 c -1.83,26.8 -15.99,51.3 -38.51,66 -112.56,73.5 -353.06,289.3 -391.94,326.6 -1.68,1.6 -4.38,0 -3.83,-2.3 l 1.71,-6.9 -139.305,173.5 c 0,0 49.085,-257 61.755,-305.1 12.67,-48.1 140.9,-515.1 140.9,-515.1 37.13,1.1 74.49,-17.2 104.68,-38 l 59.32,-241.8 181.88,-285.8 c 38,-48.7 131.35,-54.2 184.76,-23.1 l 363.91,239.1 c 38.6,22.4 84.76,28 127.57,15.2 l 1387.48,-412.4 c 27.18,-8.1 55.18,-13.2 83.47,-15 L 6175.46,7575 c 98.12,-6.5 193.9,-32.9 281.55,-77.5 L 7513.9,6959.9 c 90.94,-46.3 191.4,-70.7 293.44,-71.5 l 1771.4,-12.5 C 9475.37,6782.8 9280.45,6647 9280.45,6647 c 141.26,38.1 689.47,368.5 753.75,407.5 l 52,27.3 c 46.2,21.6 56.9,82.6 20.8,118.6"
         style="fill:#12100e;fill-opacity:1;fill-rule:nonzero;stroke:none"
         transform="matrix(0.13333333,0,0,-0.13333333,0,2800)" />
      <path
         id="path98"
         d="m 4791.42,12755.9 c 0,0 142.03,-117 308.66,-68.9 l -178.99,-92.7 -129.67,161.6"
         style="fill:#12100e;fill-opacity:1;fill-rule:nonzero;stroke:none"
         transform="matrix(0.13333333,0,0,-0.13333333,0,2800)" />
      <path
         id="path99"
         d="m 5564.89,12949.4 -706.71,-382.9"
         style="fill:none;stroke:#100f0d;stroke-width:70;stroke-linecap:round;stroke-linejoin:round;stroke-miterlimit:10;stroke-dasharray:none;stroke-opacity:1"
         transform="matrix(0.13333333,0,0,-0.13333333,0,2800)" />
      <path
         id="path100"
         d="m 4837.59,12390.6 c 495.76,257.9 2406.88,1240.9 3062.88,1416.2 0,0 1623.33,-87.3 1952.98,-97.2 15.93,-0.5 23.06,-20.3 11.13,-30.8 l -196.16,-173.9 c -9.55,-8.5 -4.82,-24.2 7.81,-26 l 175.97,-25.2 c 48.53,-6.9 97.98,2.8 140.33,27.5 l 241.67,140.9 c 71.1,41.5 152.5,61.7 234.7,58.2 448.6,-18.9 1966,-86.2 2436.8,-150.9 48.5,-6.7 75.3,-59.9 51.5,-102.8 L 12113,11901.1 c -59.4,-107.4 -170.6,-175.9 -293.2,-180.7 -564,-21.8 -2145.93,-81.5 -2221.78,-67.3 -92.38,17.3 -496.56,34.6 -687.1,80.8 -190.54,46.2 -282.93,109.7 -398.41,109.7 -115.48,0 -536.98,11.6 -536.98,11.6 l -51.97,-52 -1530.1,138.6 -92.39,-127 c 0,0 -583.17,173.2 -871.87,271.3 -189.62,64.5 -436.52,148.9 -583.67,199.2 -47.78,16.4 -52.74,82 -7.94,105.3"
         style="fill:#12100e;fill-opacity:1;fill-rule:nonzero;stroke:none"
         transform="matrix(0.13333333,0,0,-0.13333333,0,2800)" />
      <path
         id="path101"
         d="m 8037.72,9044.9 -426.26,523.5 c -1.43,1.8 -1.16,4.3 0.58,5.7 l 307.93,250.9 c 0.47,0.4 0.99,0.7 1.57,0.8 38.67,9.8 1366.96,343.9 1520.59,378 145.04,32.3 911.47,150.3 1016.17,167.5 3.9,0.6 31.6,-31.9 28.9,-34.7 -35.3,-36.6 -208.7,-144.3 -307.5,-219.4 -112,-85.1 -1164.61,-982.5 -1201.55,-1014 -0.67,-0.6 -1.47,-0.9 -2.35,-0.9 l -934.66,-58.9 c -1.32,-0.1 -2.59,0.5 -3.42,1.5"
         style="fill:#12100e;fill-opacity:1;fill-rule:nonzero;stroke:none"
         transform="matrix(0.13333333,0,0,-0.13333333,0,2800)" />
      <path
         id="path102"
         d="m 1208.41,9978.6 v 0 l 127.02,231 40.42,190.5 c 0,0 505.09,654.1 668.79,791.7 13.13,11 33.25,3.7 36.3,-13.1 l 108.88,-602.7 c 7.48,-45.9 -4.27,-92.9 -32.47,-129.9 l -115.19,-151.2 c -16.61,-21.8 -38.42,-39 -63.48,-50.1 -112.28,-49.6 -444.64,-198 -612.5,-289.1 -51.87,-28.1 -116.04,-18.8 -157.77,22.9"
         style="fill:#12100e;fill-opacity:1;fill-rule:nonzero;stroke:none"
         transform="matrix(0.13333333,0,0,-0.13333333,0,2800)" />
      <path
         id="path103"
         d="m 992.43,7799 c 4.636,1.7 9.8,-0.3 12.27,-4.5 22.89,-39.7 139.43,-229.6 324.96,-327.6 207.86,-109.7 248.28,-167.4 329.12,-161.6 80.83,5.7 277.15,75 329.12,46.2 51.96,-28.9 1010.45,-352.3 1420.4,-415.8 387.93,-60.1 2047.73,-192.6 2264.1,-211.5 14.2,-1.2 27.21,-8.1 36.21,-19.2 50.08,-61.5 222.58,-268.4 286.44,-283.2 75.06,-17.3 1818.81,-63.5 1974.71,-63.5 155.89,0 802.58,-5.7 941.16,23.1 138.57,28.9 421.5,98.2 583.17,115.5 161.67,17.3 1102.81,138.6 1356.91,184.8 254,46.2 744.8,144.3 744.8,144.3 l 69.3,-46.2 c 0,0 -1472.4,-254 -1535.9,-265.6 -63.5,-11.5 -1085.48,-127 -1154.77,-150.1 -69.29,-23.1 -1154.8,-34.6 -1154.8,-34.6 l -1798.88,44.9 c -31.24,0.8 -60.88,14 -82.36,36.7 l -244.46,258 c -21.74,23 -51.17,37.1 -82.68,39.6 -323.68,25.7 -2146.63,170.8 -2220.27,186.6 -80.84,17.3 -1437.73,421.5 -1437.73,421.5 l -530.86,-114.5 c -38.16,-8.2 -77.99,-1.5 -111.44,18.6 -173.89,104.6 -692.055,444.8 -318.52,578.1"
         style="fill:#F9CE5C;fill-opacity:1;fill-rule:nonzero;stroke:none"
         transform="matrix(0.13333333,0,0,-0.13333333,0,2800)" />
      <path
         id="path104"
         d="m 2201.53,7726.8 5.78,-311.8 -40.42,11.5 -5.77,196.3 c 0,0 23.09,57.8 40.41,104"
         style="fill:#7c7d7f;fill-opacity:1;fill-rule:nonzero;stroke:none"
         transform="matrix(0.13333333,0,0,-0.13333333,0,2800)" />
      <path
         id="path105"
         d="m 6064.34,7137.8 c 0,-11.5 -138.58,-306 -138.58,-306 h -80.83 l 167.44,346.4 51.97,-40.4"
         style="fill:#7c7d7f;fill-opacity:1;fill-rule:nonzero;stroke:none"
         transform="matrix(0.13333333,0,0,-0.13333333,0,2800)" />
      <path
         id="path106"
         d="m 1387.4,8188.7 34.64,40.4 c 0,0 51.28,-162.4 146.48,-251.9 23.36,-21.9 61.26,-15.6 76.46,12.6 l 17.77,33.1 c 22.39,41.5 65.63,67.6 112.85,68 64.53,0.5 130.25,1.9 137.23,5.4 11.55,5.8 207.87,115.5 225.19,109.7 l -433.05,-271.4 c -39.74,-20.2 -123.6,-24.2 -153.08,9.3 -39.97,45.5 -80.95,113.7 -164.49,244.8"
         style="fill:#F9CE5C;fill-opacity:1;fill-rule:nonzero;stroke:none"
         transform="matrix(0.13333333,0,0,-0.13333333,0,2800)" />
      <path
         id="path107"
         d="m 2253.5,8460.1 c 0,0 877.65,-450.4 1379.98,-508.1 502.34,-57.8 2257.64,-138.6 2500.15,-138.6 242.5,0 554.3,28.9 640.91,-11.6 86.61,-40.4 236.73,-115.4 236.73,-115.4 l -231.39,83.7 c -26.44,9.5 -54.38,14.3 -82.5,14.1 l -667.69,-5.5 c 0,0 -2280.73,104 -2390.43,127.1 -109.71,23.1 -1218.31,352.2 -1385.76,554.3"
         style="fill:#F9CE5C;fill-opacity:1;fill-rule:nonzero;stroke:none"
         transform="matrix(0.13333333,0,0,-0.13333333,0,2800)" />
      <path
         id="path108"
         d="m 1788.69,10252.9 -17.32,352.2 c 0,0 138.58,179 161.67,144.4 l 127.03,-265.6 z m 376.15,298.1 -73.01,536.2 c -3.75,30.8 -45.47,43 -69.29,23.1 l -62.57,-69.4 c -4.43,-3.7 -7.98,-8.3 -10.42,-13.5 l -34.84,-74.7 c -1.25,-2.7 -2.79,-5.2 -4.6,-7.5 l -295.03,-378.6 c -5.36,-6.8 -8.27,-15.3 -8.27,-24 v -378.5 c 0,-27.8 28.29,-46.8 54.06,-36.2 l 297.34,122.5 c 27.03,11.1 50.75,29 68.86,51.9 l 105.46,133.6 c 25.69,32.5 37.32,74 32.31,115.1"
         style="fill:#F9CE5C;fill-opacity:1;fill-rule:nonzero;stroke:none"
         transform="matrix(0.13333333,0,0,-0.13333333,0,2800)" />
      <path
         id="path109"
         d="m 1352.76,10382.8 -28.87,-167.4 -127.03,-225.2 -42.37,59.3 c -9.25,12.9 -9.49,30.3 -0.61,43.5 l 198.88,289.8"
         style="fill:#12100e;fill-opacity:1;fill-rule:nonzero;stroke:none"
         transform="matrix(0.13333333,0,0,-0.13333333,0,2800)" />
      <path
         id="path110"
         d="m 8099.67,9678.4 c 0,28.7 -22.62,52 -50.52,52 -27.9,0 -50.52,-23.3 -50.52,-52 0,-2 0.12,-3.9 0.33,-5.8 7.02,16.9 24.88,28.9 45.86,28.9 27.1,0 49.08,-20.1 49.08,-44.8 0,-0.9 -0.09,-1.8 -0.15,-2.7 3.77,7.3 5.92,15.6 5.92,24.4"
         style="fill:#F9CE5C;fill-opacity:1;fill-rule:nonzero;stroke:none"
         transform="matrix(0.13333333,0,0,-0.13333333,0,2800)" />
      <path
         id="path111"
         d="m 8037.6,9580.2 c -27.9,0 -50.52,-23.2 -50.52,-51.9 0,-2 0.13,-3.9 0.33,-5.9 7.02,16.9 24.88,29 45.86,29 27.11,0 49.08,-20.1 49.08,-44.8 0,-0.9 -0.09,-1.8 -0.15,-2.7 3.77,7.2 5.92,15.5 5.92,24.4 0,28.7 -22.62,51.9 -50.52,51.9"
         style="fill:#F9CE5C;fill-opacity:1;fill-rule:nonzero;stroke:none"
         transform="matrix(0.13333333,0,0,-0.13333333,0,2800)" />
      <path
         id="path112"
         d="m 8082.35,9395.5 c 0,28.7 -22.62,51.9 -50.52,51.9 -27.91,0 -50.53,-23.2 -50.53,-51.9 0,-2 0.13,-3.9 0.34,-5.9 7.02,16.9 24.88,29 45.86,29 27.1,0 49.08,-20.1 49.08,-44.8 0,-0.9 -0.1,-1.8 -0.16,-2.7 3.78,7.2 5.93,15.5 5.93,24.4"
         style="fill:#F9CE5C;fill-opacity:1;fill-rule:nonzero;stroke:none"
         transform="matrix(0.13333333,0,0,-0.13333333,0,2800)" />
      <path
         id="path113"
         d="m 8303.2,9799.6 c -27.9,0 -50.52,-23.2 -50.52,-51.9 0,-2 0.13,-3.9 0.34,-5.8 7.02,16.8 24.87,28.9 45.85,28.9 27.11,0 49.08,-20.1 49.08,-44.8 0,-0.9 -0.09,-1.8 -0.15,-2.7 3.77,7.2 5.93,15.5 5.93,24.4 0,28.7 -22.62,51.9 -50.53,51.9"
         style="fill:#F9CE5C;fill-opacity:1;fill-rule:nonzero;stroke:none"
         transform="matrix(0.13333333,0,0,-0.13333333,0,2800)" />
      <path
         id="path114"
         d="m 8291.66,9643.7 c -27.91,0 -50.53,-23.2 -50.53,-51.9 0,-2 0.13,-3.9 0.34,-5.8 7.02,16.8 24.88,28.9 45.86,28.9 27.1,0 49.08,-20.1 49.08,-44.8 0,-0.9 -0.1,-1.8 -0.16,-2.7 3.78,7.2 5.93,15.5 5.93,24.4 0,28.7 -22.62,51.9 -50.52,51.9"
         style="fill:#F9CE5C;fill-opacity:1;fill-rule:nonzero;stroke:none"
         transform="matrix(0.13333333,0,0,-0.13333333,0,2800)" />
      <path
         id="path115"
         d="m 8274.33,9505.2 c -27.9,0 -50.52,-23.3 -50.52,-52 0,-2 0.13,-3.9 0.34,-5.8 7.02,16.9 24.87,28.9 45.85,28.9 27.11,0 49.08,-20 49.08,-44.8 0,-0.9 -0.09,-1.8 -0.15,-2.7 3.77,7.3 5.93,15.6 5.93,24.4 0,28.7 -22.62,52 -50.53,52"
         style="fill:#F9CE5C;fill-opacity:1;fill-rule:nonzero;stroke:none"
         transform="matrix(0.13333333,0,0,-0.13333333,0,2800)" />
      <path
         id="path116"
         d="m 8251.24,9349.3 c -27.9,0 -50.52,-23.3 -50.52,-52 0,-2 0.12,-3.9 0.33,-5.8 7.02,16.9 24.88,28.9 45.86,28.9 27.1,0 49.08,-20 49.08,-44.8 0,-0.9 -0.09,-1.8 -0.16,-2.7 3.78,7.3 5.93,15.6 5.93,24.4 0,28.7 -22.62,52 -50.52,52"
         style="fill:#F9CE5C;fill-opacity:1;fill-rule:nonzero;stroke:none"
         transform="matrix(0.13333333,0,0,-0.13333333,0,2800)" />
      <path
         id="path117"
         d="m 8428.79,9675.5 h -23.1 l 34.65,-69.3 103.93,5.8 -115.48,63.5"
         style="fill:#F9CE5C;fill-opacity:1;fill-rule:nonzero;stroke:none"
         transform="matrix(0.13333333,0,0,-0.13333333,0,2800)" />
      <path
         id="path118"
         d="m 8411.47,9444.5 202.09,28.9 -5.78,34.7 -98.15,40.4 -121.26,-17.4 23.1,-86.6"
         style="fill:#F9CE5C;fill-opacity:1;fill-rule:nonzero;stroke:none"
         transform="matrix(0.13333333,0,0,-0.13333333,0,2800)" />
      <path
         id="path119"
         d="m 8411.47,9294.4 196.31,40.4 11.55,92.4 -242.51,-40.4 34.65,-92.4"
         style="fill:#F9CE5C;fill-opacity:1;fill-rule:nonzero;stroke:none"
         transform="matrix(0.13333333,0,0,-0.13333333,0,2800)" />
      <path
         id="path120"
         d="m 9260.24,10108.5 c -75.06,-17.3 -1304.92,-340.6 -1304.92,-340.6 0,0 860.33,150.1 923.84,161.7 63.51,11.5 877.65,103.9 883.42,103.9 5.78,0 461.92,161.7 473.52,161.7 11.5,0 86.6,103.9 86.6,103.9 0,0 -987.39,-173.2 -1062.46,-190.6"
         style="fill:#F9CE5C;fill-opacity:1;fill-rule:nonzero;stroke:none"
         transform="matrix(0.13333333,0,0,-0.13333333,0,2800)" />
      <path
         id="path121"
         d="m 10458.3,10359.7 c -34.6,0 -265.6,-46.2 -265.6,-46.2 0,0 -998.86,-179 -1010.4,-179 -11.55,0 -1261.62,-308.9 -1261.62,-308.9 l -283,-230.6 c -15.86,-12.9 -18.13,-36.3 -5.05,-52 l 403.53,-485.3 69.29,-5.8 h 103.93 l -144.35,40.4 c -17.32,5.8 -375.31,479.3 -375.31,479.3 l 277.15,225.2 1264.5,323.3 1097.03,196.3 23.1,-5.8 c 0,0 -101,-129.9 -89.5,-118.3 11.6,11.5 181.9,135.7 181.9,135.7 0,0 49.1,31.7 14.4,31.7"
         style="fill:#F9CE5C;fill-opacity:1;fill-rule:nonzero;stroke:none"
         transform="matrix(0.13333333,0,0,-0.13333333,0,2800)" />
      <path
         id="path122"
         d="m 9494.32,9577.7 c -0.06,0 -0.11,0 -0.23,0.1"
         style="fill:none;stroke:#ec1d27;stroke-width:10;stroke-linecap:butt;stroke-linejoin:miter;stroke-miterlimit:10;stroke-dasharray:none;stroke-opacity:1"
         transform="matrix(0.13333333,0,0,-0.13333333,0,2800)" />
      <path
         id="path123"
         d="m 9456.68,9999 c -52.03,-41.2 -86.73,-115.1 -86.73,-199.4 0,-63.4 19.63,-120.9 51.5,-163 l -79.1,-37.3 c -52.66,41 -87.88,115.4 -87.88,200.3 0,74.8 27.25,141.3 69.69,184.1 l 132.52,15.3"
         style="fill:#F9CE5C;fill-opacity:1;fill-rule:nonzero;stroke:none"
         transform="matrix(0.13333333,0,0,-0.13333333,0,2800)" />
      <path
         id="path124"
         d="m 9610.78,9733.2 c 4.85,21.1 7.45,43.3 7.45,66.4 0,0.8 0,1.6 -0.06,2.3 -0.4,60.6 -18.76,115.6 -48.55,156.9 -13.8,19.1 -30.09,35.2 -48.22,47.6 l 96.77,11 c 63.29,-31.8 109.31,-108 114.97,-198.8 l -122.36,-85.4"
         style="fill:#F9CE5C;fill-opacity:1;fill-rule:nonzero;stroke:none"
         transform="matrix(0.13333333,0,0,-0.13333333,0,2800)" />
      <path
         id="path125"
         d="m 10189.9,10137.4 -612.09,-427.3 -687.1,-323.3 80.83,513.9 c 0,0 -103.93,11.5 -121.25,5.8 -17.32,-5.8 -118.37,-37.6 -118.37,-37.6 l -101.04,-557.2 -519.66,-225.2 98.16,-34.6 219.41,17.3 398.4,236.8 606.27,219.4 142.11,122.2 614.33,489.8"
         style="fill:#F9CE5C;fill-opacity:1;fill-rule:nonzero;stroke:none"
         transform="matrix(0.13333333,0,0,-0.13333333,0,2800)" />
      <path
         id="path126"
         d="m 9690.41,9834.3 c 0,-7.7 -43.19,-22.9 -72.24,-32.4 -0.4,60.6 -18.76,115.6 -48.55,156.9 l 74.6,8.3 c 0,0 46.19,-121.3 46.19,-132.8"
         style="fill:#dad9d8;fill-opacity:1;fill-rule:nonzero;stroke:none"
         transform="matrix(0.13333333,0,0,-0.13333333,0,2800)" />
      <path
         id="path127"
         d="m 8500.96,9060.6 352.22,230.9 548.53,196.3 -368.19,-342.2 c -27.08,-25.2 -61.72,-40.7 -98.54,-44.2 l -434.02,-40.8"
         style="fill:#12100e;fill-opacity:1;fill-rule:nonzero;stroke:none"
         transform="matrix(0.13333333,0,0,-0.13333333,0,2800)" />
      <path
         id="path128"
         d="m 5547.56,12250.7 190.55,277.2 -519.66,-248.3 z"
         style="fill:#F9CE5C;fill-opacity:1;fill-rule:nonzero;stroke:none"
         transform="matrix(0.13333333,0,0,-0.13333333,0,2800)" />
      <path
         id="path129"
         d="m 8619.33,13653.8 c -669.78,-40.4 -2176.8,-744.9 -2176.8,-744.9 l -398.4,-652.4 277.15,-17.4 2621.39,750.7 c 57.75,184.7 427.28,658.2 427.28,658.2 l -750.62,5.8"
         style="fill:#F9CE5C;fill-opacity:1;fill-rule:nonzero;stroke:none"
         transform="matrix(0.13333333,0,0,-0.13333333,0,2800)" />
      <path
         id="path130"
         d="m 13259.5,12201.5 c 147.7,-195.5 252.4,-422.7 316.3,-679.8 16.7,-36 -15.1,-75.7 -53.9,-67.1 l -445.4,98 c -47.4,10.5 -75,60 -59,105.8 l 189.2,540.5 c 8.4,24.2 42,25.8 52.8,2.6"
         style="fill:#F9CE5C;fill-opacity:1;fill-rule:nonzero;stroke:none"
         transform="matrix(0.13333333,0,0,-0.13333333,0,2800)" />
      <path
         id="path131"
         d="m 14546.3,12571.2 c 0,0 -141.6,-40.5 -265.6,-179 -98.1,-109.7 -248.2,-323.4 -248.2,-352.3 0,-28.8 75,-98.1 75,-98.1 l 57.8,-433.1 -155.1,-65.8 c -29.9,-12.7 -64.3,2.6 -74.8,33.4 -68,199.3 -309.4,872.5 -590.1,1250.8 0,0 519.7,1027.7 1818.9,900.7 0,0 519.6,-652.5 652.4,-1085.5 l -75,-69.3"
         style="fill:#F9CE5C;fill-opacity:1;fill-rule:nonzero;stroke:none"
         transform="matrix(0.13333333,0,0,-0.13333333,0,2800)" />
      <path
         id="path132"
         d="m 15207.5,13619.1 c 0,0 323.3,-40.4 461.9,-213.6 113.6,-142.1 345.7,-495.8 425.5,-618.4 15.3,-23.4 8.2,-54.7 -15.6,-69.3 l -225.2,-138 c 0,0 -381,796.8 -646.6,1039.3"
         style="fill:#F9CE5C;fill-opacity:1;fill-rule:nonzero;stroke:none"
         transform="matrix(0.13333333,0,0,-0.13333333,0,2800)" />
      <path
         id="path133"
         d="m 16463.3,12946.5 c 18.7,85.1 38.2,171.4 32.2,220.4 5.1,35.4 -8.6,70.8 -36.2,93.5 -112.7,92.6 -412.9,334.2 -582.9,424.5 -22.5,11.9 -48.2,16.1 -73.3,12 l -142.4,-22.9 152.9,49.4 c 27.3,8.9 57.2,4.2 80.6,-12.5 l 646.7,-462.7 c 15.6,-11.1 21.7,-31.2 15,-49.1 -7.9,-90.5 -47.9,-177.9 -98.4,-264.2"
         style="fill:#F9CE5C;fill-opacity:1;fill-rule:nonzero;stroke:none"
         transform="matrix(0.13333333,0,0,-0.13333333,0,2800)" />
      <path
         id="path134"
         d="m 12819.9,11705.1 c 0,0 375.3,1097 716,1472.3 271.4,277.2 381.1,392.7 981.6,467.7 0,0 -646.7,-92.4 -993.2,-560.1 -237.7,-328.7 -491.2,-825.6 -704.4,-1379.9"
         style="fill:#9ea8ad;fill-opacity:1;fill-rule:nonzero;stroke:none"
         transform="matrix(0.13333333,0,0,-0.13333333,0,2800)" />
      <path
         id="path135"
         d="m 17877.9,13385.3 329.2,-115.5 -52.1,250.6 c -7.1,34.3 -32.1,62 -65.4,72.6 -221.6,70.7 -1080.9,346.6 -1100.9,346.6 -23.1,0 -536.9,-23.1 -536.9,-23.1 l -86.7,23.1 578.5,21.2 c 33.7,1.3 67.4,-3.3 99.5,-13.4 l 1140.9,-360 386.8,-161.7 109.7,-57.7 c 0,0 -17.3,0 -98.1,-17.3 -62.2,-13.4 -226.7,-81.3 -299.4,-112 -22.8,-9.6 -48.5,-9.4 -71.1,0.5 l -334,146.1"
         style="fill:#12100e;fill-opacity:1;fill-rule:nonzero;stroke:none"
         transform="matrix(0.13333333,0,0,-0.13333333,0,2800)" />
    </g>
  </g>
</svg>
